<?xml version="1.0" standalone="no"?>
<!DOCTYPE svg PUBLIC "-//W3C//DTD SVG 20010904//EN"
 "http://www.w3.org/TR/2001/REC-SVG-20010904/DTD/svg10.dtd">
<svg version="1.0" xmlns="http://www.w3.org/2000/svg"
 width="700.000000pt" height="700.000000pt" viewBox="0 0 700.000000 700.000000"
 preserveAspectRatio="xMidYMid meet">
<metadata>
Created by potrace 1.11, written by Peter Selinger 2001-2013
</metadata>
<g transform="translate(0.000000,700.000000) scale(0.100000,-0.100000)"
fill="#000000" stroke="none">
<path d="M3299 6876 c-2 -2 -47 -7 -99 -10 -52 -3 -106 -8 -120 -10 -14 -3
-43 -7 -65 -10 -165 -22 -409 -81 -580 -138 -762 -258 -1408 -787 -1814 -1488
-106 -183 -230 -469 -291 -670 -53 -175 -58 -194 -64 -234 -4 -21 -8 -41 -10
-45 -10 -15 -49 -267 -62 -391 -13 -132 -19 -447 -10 -525 2 -16 7 -64 10
-105 5 -62 18 -154 41 -295 3 -19 10 -56 19 -100 62 -299 215 -693 370 -955
106 -181 267 -408 356 -504 21 -23 49 -54 63 -71 18 -21 26 -25 27 -14 0 21
40 57 70 62 54 10 87 21 122 38 45 23 107 24 176 4 132 -39 180 -151 142 -331
-10 -50 -15 -106 -12 -137 2 -29 5 -64 6 -79 0 -14 3 -26 6 -25 3 1 51 -29
108 -66 174 -114 386 -223 617 -318 118 -48 370 -120 544 -155 140 -29 146
-30 251 -39 41 -4 79 -10 85 -13 15 -9 491 -10 580 -2 102 10 176 20 265 35
19 3 49 8 65 11 17 3 46 9 65 14 19 5 46 11 60 14 272 48 752 247 1018 421
147 97 355 252 423 315 83 78 205 199 254 251 223 239 450 583 579 879 21 47
42 94 47 105 55 121 148 425 176 575 2 14 8 44 13 67 5 22 12 65 16 95 3 29
11 58 16 65 5 7 8 22 5 35 -4 20 -4 20 -6 -4 -2 -55 -33 -22 -61 67 -34 107
-148 225 -309 321 -68 41 -128 74 -133 74 -19 0 -60 -35 -92 -79 -58 -80 -105
-177 -201 -416 -40 -97 -71 -151 -92 -159 -11 -4 -31 9 -62 41 -95 98 -175
212 -252 363 l-34 65 -246 3 -246 3 -21 -58 c-65 -177 -230 -353 -423 -452
-42 -21 -96 -43 -121 -48 l-45 -10 -104 107 c-133 137 -191 199 -313 338 -55
61 -102 112 -104 112 -2 0 18 -27 45 -61 26 -33 61 -79 77 -102 63 -92 228
-297 302 -376 l79 -84 170 51 c94 27 178 50 188 49 20 0 19 -18 -7 -103 -9
-28 -25 -95 -37 -150 -11 -54 -22 -108 -24 -118 -25 -114 -111 -256 -205 -335
-22 -19 -40 -37 -40 -42 0 -4 13 -36 29 -71 70 -149 92 -359 56 -513 -9 -38
-19 -81 -21 -95 -3 -14 -16 -68 -30 -120 -54 -201 -134 -362 -259 -521 -62
-78 -70 -85 -118 -96 -67 -15 -235 -14 -310 1 -66 14 -107 48 -187 156 -58 79
-91 144 -176 348 -55 132 -66 167 -67 217 -1 81 10 132 47 217 9 21 16 40 16
42 0 6 -105 130 -148 176 -13 14 -50 61 -83 105 -33 44 -67 88 -75 98 -8 9
-14 20 -14 23 0 7 -43 67 -53 75 -5 3 -61 -7 -125 -22 -260 -64 -526 -80 -657
-40 -73 22 -152 69 -211 126 -67 65 -115 199 -108 302 3 44 14 139 20 168 3
11 7 40 10 65 3 25 7 52 9 60 2 8 7 35 10 60 24 178 59 291 139 444 l51 99 90
42 c212 99 239 109 367 145 157 45 187 37 259 -67 37 -53 49 -59 124 -67 33
-3 71 -8 85 -11 39 -8 93 -9 115 -2 11 4 31 25 45 47 28 45 32 47 98 55 26 3
81 10 122 15 120 16 143 18 211 25 35 4 73 9 84 10 11 1 32 3 48 4 24 1 27 5
27 34 -1 17 -11 57 -24 87 l-22 55 -100 1 c-168 2 -218 16 -245 65 -14 28 -6
82 19 117 19 25 190 139 243 161 13 5 76 19 139 30 159 29 163 29 180 30 8 1
-16 17 -55 36 -70 36 -130 84 -174 140 l-23 30 5 -37 c9 -70 -45 -147 -98
-139 -29 4 -105 50 -105 63 0 8 -3 8 -9 2 -4 -5 -13 -42 -20 -82 -16 -102 -34
-141 -92 -197 -68 -66 -70 -73 -54 -133 16 -63 15 -153 -3 -175 -17 -21 -77
-13 -118 15 -17 12 -50 54 -74 94 -23 40 -72 110 -109 156 -36 46 -75 101 -86
121 -18 33 -24 37 -60 37 -23 0 -50 -6 -61 -14 -19 -14 -19 -15 6 -61 14 -26
41 -64 61 -84 67 -67 145 -137 162 -144 24 -9 21 -20 -16 -69 -18 -24 -45 -64
-60 -90 -54 -93 -101 -82 -99 22 0 3 3 33 6 66 l6 61 -42 35 c-87 71 -169 118
-208 118 -34 0 -153 -34 -175 -50 -5 -4 -25 -11 -44 -15 -27 -6 -37 -15 -52
-50 -10 -23 -21 -60 -25 -81 -3 -21 -10 -58 -15 -82 -5 -23 -12 -59 -15 -80
-8 -51 -21 -72 -39 -65 -9 3 -32 -6 -53 -20 -20 -14 -59 -31 -86 -37 -172 -38
-233 21 -238 230 -2 97 7 121 54 143 18 8 73 33 121 56 l89 41 -30 25 c-27 23
-49 65 -66 130 -4 15 7 34 40 70 62 67 111 141 168 253 46 88 119 172 150 172
29 0 34 22 15 60 -26 50 -33 99 -17 130 25 47 89 29 168 -46 40 -38 49 -42 85
-39 22 2 85 7 140 10 55 4 103 10 106 13 4 4 9 32 12 62 15 137 76 239 186
309 29 19 50 35 49 36 -2 2 -40 5 -85 8 -112 8 -154 31 -183 105 -25 63 -13
281 22 390 5 18 8 35 5 38 -5 5 -168 -315 -204 -400 l-21 -50 37 -26 c50 -37
67 -58 106 -131 l34 -63 -51 -66 c-68 -86 -131 -146 -161 -152 -36 -7 -60 17
-104 105 l-38 77 -105 -65 c-58 -35 -110 -65 -116 -65 -31 -1 -97 119 -108
195 -3 22 -11 68 -18 102 -13 69 -14 66 53 178 95 158 169 303 231 450 58 138
60 145 98 284 17 62 37 125 45 140 19 36 59 72 133 119 l64 40 49 -18 c27 -10
64 -21 82 -24 242 -38 310 -63 389 -142 30 -30 68 -80 85 -112 l32 -58 -27
-54 c-30 -59 -75 -90 -140 -95 -20 -2 -41 -4 -47 -5 -5 0 26 -12 70 -27 84
-27 176 -82 218 -132 l25 -30 14 22 c8 12 20 38 28 57 53 134 163 304 260 400
102 102 201 149 346 165 27 3 72 8 99 11 74 8 83 12 90 45 10 46 54 117 90
146 58 47 115 63 209 60 47 -2 85 -2 83 -1 -10 10 -238 101 -324 129 -124 42
-340 99 -430 115 -35 6 -73 13 -85 15 -130 23 -301 37 -489 41 -124 2 -227 2
-230 0z m-1324 -1929 c-10 -38 -12 -105 -5 -117 5 -8 23 -3 59 17 44 24 53 26
61 13 14 -22 12 -85 -4 -123 -13 -31 -12 -33 7 -33 17 1 24 -11 40 -66 l20
-67 52 -15 c28 -9 59 -24 68 -34 21 -23 22 -78 2 -115 -12 -24 -12 -29 0 -34
29 -11 14 -22 -65 -48 -44 -15 -82 -30 -85 -34 -2 -5 -29 -27 -60 -51 -78 -60
-90 -42 -25 39 55 69 59 77 31 61 -52 -27 -84 5 -58 57 9 19 11 39 6 63 -7 29
-5 38 11 51 19 17 19 17 0 74 -25 73 -37 87 -59 75 -24 -12 -76 20 -84 52 -3
12 -12 40 -20 62 -20 55 -5 107 49 164 43 45 69 49 59 9z m-29 -368 c8 -6 10
-24 7 -44 -4 -23 0 -43 11 -59 20 -31 20 -49 1 -89 -16 -34 -71 -77 -98 -77
-27 0 -55 35 -50 62 3 13 -7 45 -22 75 -25 50 -25 54 -10 84 28 53 122 81 161
48z m4103 -1628 c20 -40 -2 -173 -32 -193 -24 -15 -67 35 -67 81 0 17 33 96
53 128 9 15 35 6 46 -16z m-1168 -1054 c50 -37 84 -204 80 -402 -1 -95 -2 -99
-24 -146 -41 -83 -130 -77 -193 13 -62 87 -70 145 -35 251 11 34 22 74 25 90
3 15 7 35 10 45 3 9 7 34 10 55 15 96 70 137 127 94z"/>
<path d="M1185 1174 c134 -134 275 -257 275 -241 0 2 -35 33 -77 68 -43 34
-132 115 -198 178 l-120 115 120 -120z"/>
<path d="M1510 896 c0 -2 8 -10 18 -17 15 -13 16 -12 3 4 -13 16 -21 21 -21
13z"/>
</g>
</svg>
