<?xml version="1.0" encoding="UTF-8" standalone="no"?>
<!-- Created with Inkscape (http://www.inkscape.org/) -->

<svg
   xmlns:dc="http://purl.org/dc/elements/1.1/"
   xmlns:cc="http://creativecommons.org/ns#"
   xmlns:rdf="http://www.w3.org/1999/02/22-rdf-syntax-ns#"
   xmlns:svg="http://www.w3.org/2000/svg"
   xmlns="http://www.w3.org/2000/svg"
   xmlns:sodipodi="http://sodipodi.sourceforge.net/DTD/sodipodi-0.dtd"
   xmlns:inkscape="http://www.inkscape.org/namespaces/inkscape"
   width="300"
   height="150"
   viewBox="0 0 79.374999 39.687501"
   version="1.1"
   id="svg853"
   inkscape:version="0.92.3 (2405546, 2018-03-11)"
   sodipodi:docname="cartographix-wb.svg">
  <defs
     id="defs847">
    <filter
       style="color-interpolation-filters:sRGB"
       inkscape:label="Drop Shadow"
       id="filter17768">
      <feFlood
         flood-opacity="0.937255"
         flood-color="rgb(0,0,0)"
         result="flood"
         id="feFlood17758" />
      <feComposite
         in="flood"
         in2="SourceGraphic"
         operator="out"
         result="composite1"
         id="feComposite17760" />
      <feGaussianBlur
         in="composite1"
         stdDeviation="0.5"
         result="blur"
         id="feGaussianBlur17762" />
      <feOffset
         dx="-0.5"
         dy="-0.5"
         result="offset"
         id="feOffset17764" />
      <feComposite
         in="offset"
         in2="SourceGraphic"
         operator="atop"
         result="composite2"
         id="feComposite17766" />
    </filter>
  </defs>
  <sodipodi:namedview
     id="base"
     pagecolor="#ffffff"
     bordercolor="#666666"
     borderopacity="1.0"
     inkscape:pageopacity="0.0"
     inkscape:pageshadow="2"
     inkscape:zoom="3.3752564"
     inkscape:cx="127.8815"
     inkscape:cy="50.975604"
     inkscape:document-units="mm"
     inkscape:current-layer="layer1"
     showgrid="true"
     units="px"
     inkscape:window-width="1920"
     inkscape:window-height="1017"
     inkscape:window-x="-8"
     inkscape:window-y="-8"
     inkscape:window-maximized="1">
    <inkscape:grid
       type="xygrid"
       id="grid1398"
       spacingx="1.3229167"
       spacingy="1.3229167" />
  </sodipodi:namedview>
  <metadata
     id="metadata850">
    <rdf:RDF>
      <cc:Work
         rdf:about="">
        <dc:format>image/svg+xml</dc:format>
        <dc:type
           rdf:resource="http://purl.org/dc/dcmitype/StillImage" />
        <dc:title />
      </cc:Work>
    </rdf:RDF>
  </metadata>
  <g
     inkscape:label="Layer 1"
     inkscape:groupmode="layer"
     id="layer1"
     transform="translate(0,-257.31248)">
    <path
       style="fill:#3d7ad6;stroke:none;stroke-width:0.26458332px;stroke-linecap:butt;stroke-linejoin:miter;stroke-opacity:1;fill-opacity:1"
       d="m 0,257.31248 v 39.6875 h 79.375002 v -39.6875 z"
       id="path2647"
       inkscape:connector-curvature="0" />
    <g
       id="g17756"
       style="stroke:#000000;stroke-width:0.2;stroke-miterlimit:4;stroke-dasharray:none;stroke-opacity:1;filter:url(#filter17768)"
       transform="matrix(0.39682542,0,0,0.39682542,23.12095,309.98455)">
      <text
         xml:space="preserve"
         style="font-style:normal;font-variant:normal;font-weight:normal;font-stretch:normal;font-size:7.0386672px;line-height:0.80000001;font-family:'Gill Sans Ultra Bold Condensed';-inkscape-font-specification:'Gill Sans Ultra Bold Condensed, ';letter-spacing:0px;word-spacing:0px;fill:#000000;fill-opacity:1;stroke:#000000;stroke-width:0.2;stroke-miterlimit:4;stroke-dasharray:none;stroke-opacity:1"
         x="-52.198391"
         y="-84.150261"
         id="text1983-9"><tspan
           id="tspan8914"
           sodipodi:role="line"
           x="-52.198391"
           y="-84.150261"
           style="font-style:normal;font-variant:normal;font-weight:900;font-stretch:normal;font-size:38.98339081px;line-height:0.80000001;font-family:Montserrat;-inkscape-font-specification:'Montserrat, Heavy';font-variant-ligatures:normal;font-variant-caps:normal;font-variant-numeric:normal;font-feature-settings:normal;text-align:start;writing-mode:lr-tb;text-anchor:start;fill:#ffffff;stroke:#000000;stroke-width:0.2;stroke-miterlimit:4;stroke-dasharray:none;stroke-opacity:1">CART</tspan><tspan
           sodipodi:role="line"
           x="-52.198391"
           y="-52.963547"
           style="font-style:normal;font-variant:normal;font-weight:900;font-stretch:normal;font-size:38.98339081px;line-height:0.80000001;font-family:Montserrat;-inkscape-font-specification:'Montserrat, Heavy';font-variant-ligatures:normal;font-variant-caps:normal;font-variant-numeric:normal;font-feature-settings:normal;text-align:start;writing-mode:lr-tb;text-anchor:start;fill:#ffffff;stroke:#000000;stroke-width:0.2;stroke-miterlimit:4;stroke-dasharray:none;stroke-opacity:1"
           id="tspan18074">GRAPHIX</tspan></text>
      <g
         style="stroke:#000000;stroke-width:0.2;stroke-miterlimit:4;stroke-dasharray:none;stroke-opacity:1"
         id="g17143"
         transform="translate(0.50006248,-0.12501562)">
        <ellipse
           ry="15.156329"
           rx="15.096776"
           cy="-98.311218"
           cx="73.30307"
           id="path1396-1-59"
           style="opacity:1;fill:#ffffff;fill-opacity:1;stroke:#000000;stroke-width:0.2;stroke-miterlimit:4;stroke-dasharray:none;stroke-opacity:1" />
        <path
           sodipodi:nodetypes="ccccccccccccccccccccccsccccccccccccccccccccccccccccccsscccccscssccccccccccccc"
           inkscape:connector-curvature="0"
           id="path1424-5"
           d="m 77.767027,-110.97573 c -1.208418,0.16853 -2.391322,-0.17364 -3.751855,3.03722 -0.559249,-0.6592 -1.036322,-0.74303 -1.518617,-0.86352 0.657024,-0.0636 0.832191,-0.0848 1.042189,-0.74442 -0.837138,-1.64473 -1.698936,-1.06068 -2.888339,-1.57816 -1.835926,0.9944 -0.110428,0.65486 -2.918111,5.21091 0.174017,0.56956 0.02002,1.17533 0.625311,1.69728 l 1.012408,-0.62531 0.357316,0.71463 c 0.360594,0.44379 0.814695,-0.32796 1.250622,-0.86352 -0.146904,-0.36168 -0.271814,-0.72777 -0.803975,-1.0124 0.357328,-0.85077 0.714643,-1.46504 1.07197,-2.1737 -0.711134,2.86696 0.315986,2.51814 1.131507,2.56079 -0.512879,0.31082 -1.061856,0.5206 -1.191069,1.90571 l -1.339942,0.0894 c -0.287838,-0.38127 -0.575688,-0.55169 -0.863526,-0.53598 -0.131064,0.17366 -0.246128,0.36066 0.08938,0.92308 -1.02781,0.42859 -0.645292,1.15811 -1.816371,2.23325 0.137518,0.69491 0.259207,0.62229 0.468975,0.81141 l -0.97293,0.450335 c -0.227356,0.06108 -0.25609,0.254629 -0.247911,0.472748 0.04221,0.325061 -0.05602,0.471425 0.126544,0.975184 0.302297,0.407377 0.585775,0.325775 0.863536,0.267984 0.249706,-0.05199 0.23106,0.02209 0.699747,-0.320092 0.278037,0.383841 0.233015,-1.1394 0.550876,-1.52606 0.416866,-0.168879 0.833744,-0.352279 1.25061,-0.387099 0.475716,0.23648 0.783258,0.488244 1.042189,0.744426 -0.01035,0.277911 -0.117376,0.555822 -0.02968,0.833744 l 0.119101,0.148883 c 0.192203,-0.06591 0.282719,-0.233418 0.357327,-0.416878 0.05958,-0.198506 0.634339,-0.609276 0.215876,-0.677419 -0.268352,-0.255596 -0.649375,-0.567386 -0.759297,-0.699746 l -0.290323,-0.49876 c 0.09179,-0.17997 0.332745,-0.13612 0.535968,-0.14889 0.367185,0.72952 0.66434,0.79862 1.012417,1.459066 0.148882,0.363608 0.297765,0.383059 0.446636,0.506198 0.138219,0.03278 0.270376,0.08972 0.446659,-0.02979 0.102376,-0.311362 0.02427,-0.67191 -0.08926,-1.042174 l 0.253099,-0.32011 c 0.446302,-0.23335 0.449259,-0.75121 0.550864,-1.3474 0.237697,0.25127 0.358202,0.30179 0.684873,0.35733 0.22371,-0.18243 0.388696,-0.40524 0.297754,-0.80398 0.302792,0.44483 0.703071,0.74116 1.220853,0.8933 l -1.548388,0.27544 -1.034735,0.64764 c -0.506393,0.622182 0.0704,0.8566 0.17121,0.893306 0.449305,0.07109 1.087395,0.04498 1.243168,0.04463 0.125532,0.379677 0.275795,0.539211 0.215887,0.789078 l -2.32258,0.267995 c -0.481341,0.01622 -0.276255,0.490693 -0.73697,0.498756 l -1.070369,-0.14144 c -0.231083,-0.0536 -0.386119,-0.812303 -0.973045,-0.703796 -1.509645,0.387097 -1.557084,0.584695 -2.519856,0.971791 -0.935891,1.567114 -0.778565,1.991929 -1.082185,3.771054 -0.303873,1.780631 1.268475,2.370214 1.915918,2.392714 1.357357,0.04716 2.2005,-0.19134 3.067004,-0.416866 0.762033,1.223647 1.164072,1.50234 1.727049,2.203467 -0.235396,0.464052 -0.370314,0.937237 -0.297765,1.429286 0.453307,1.086211 0.769776,2.266044 1.72705,3.007443 0.6253,0.136885 1.250611,0.171117 1.875922,0 1.224959,-1.427883 1.41822,-2.340181 1.768853,-3.934706 0.134055,-0.609598 -0.03014,-1.851892 -0.45868,-2.467276 1.410651,-1.203069 1.052565,-2.001983 1.488526,-3.17496 0.117226,-0.315399 -6.1e-4,-0.290898 -0.211067,-0.229368 l -1.456111,0.426655 c -1.036978,-1.002481 -1.627803,-2.004962 -2.441694,-3.007443 0.824887,0.903222 1.578847,1.806444 2.531014,2.709678 0.675361,-0.02876 2.382695,-1.056384 2.76924,-2.590576 l 2.26303,0.02979 c 0.43182,0.977451 0.946519,1.673137 1.518606,2.173699 0.432188,-0.01277 0.906915,-2.629606 1.816371,-3.037224 l 1.161291,0.684873 c 1.152594,1.161728 0.694788,1.052105 1.042189,1.578157 h 0.119112 l 0.148871,-2.2928 c 0.174385,-3.072097 -0.78236,-4.752607 -1.637719,-6.699747 -2.83637,-5.24983 -8.387262,-8.85534 -9.022373,-5.77673 z"
           style="fill:#2a435d;fill-opacity:1;stroke:#000000;stroke-width:0.2;stroke-linecap:butt;stroke-linejoin:miter;stroke-miterlimit:4;stroke-dasharray:none;stroke-opacity:1" />
        <path
           sodipodi:nodetypes="ssssss"
           inkscape:connector-curvature="0"
           id="path1426-1"
           d="m 78.819557,-88.667893 c -0.126808,-0.34679 0.06511,-0.740374 0.168438,-1.094872 0.107322,-0.368082 0.07983,-1.053496 0.463223,-1.052772 0.474611,9.09e-4 0.527697,0.832571 0.568487,1.305434 0.0459,0.532528 0.130432,1.396261 -0.378987,1.558084 -0.346089,0.109968 -0.696446,-0.374834 -0.821161,-0.715874 z"
           style="fill:#2a435d;fill-opacity:1;stroke:#000000;stroke-width:0.2;stroke-linecap:butt;stroke-linejoin:miter;stroke-miterlimit:4;stroke-dasharray:none;stroke-opacity:1" />
        <path
           sodipodi:nodetypes="ssssss"
           inkscape:connector-curvature="0"
           id="path1426-2-19"
           d="m 84.536493,-94.978495 c -0.02692,-0.13348 0.06603,-0.247014 0.12429,-0.357143 0.06039,-0.114339 0.08926,-0.352933 0.230461,-0.309372 0.174776,0.05395 0.147042,0.345664 0.135182,0.512732 -0.01334,0.188154 -0.03129,0.494465 -0.228183,0.49251 -0.133722,-0.0012 -0.235201,-0.207467 -0.26175,-0.338727 z"
           style="fill:#2a435d;fill-opacity:1;stroke:#000000;stroke-width:0.2;stroke-linecap:butt;stroke-linejoin:miter;stroke-miterlimit:4;stroke-dasharray:none;stroke-opacity:1" />
        <path
           sodipodi:nodetypes="cccsccccccccccccscsccc"
           inkscape:connector-curvature="0"
           id="path1443-0"
           d="m 66.563561,-101.21644 0.617858,-0.49131 0.692315,-0.23077 c 0.03278,-0.0599 -0.201267,-0.0931 -0.140059,-0.15618 0.05602,-0.0577 0.146225,-0.32362 0.110313,-0.53612 -0.20596,-0.22537 -0.41192,-0.25054 -0.617869,-0.28288 l -0.147663,-0.48552 c 0.0046,-0.15476 -0.05372,-0.22741 -0.246876,-0.1249 0.165447,-0.2455 0.134653,-0.38135 0.156325,-0.5732 -0.0819,-0.38163 -0.163768,-0.16697 -0.245657,-0.14888 l -0.342431,0.20099 c -0.13945,-0.30126 0.09616,-0.65364 -0.02243,-0.75931 -0.278566,0.17529 -0.48004,0.32687 -0.521083,0.81886 l 0.208434,0.55087 c 0.12407,0.11296 0.248141,0.14257 0.372212,0.0967 0.0819,-0.1935 0.238214,0.44856 0.320092,0.64764 -0.189707,0.0419 -0.216773,0.0498 -0.157636,0.23374 0.07109,0.22112 0.0058,0.39656 -0.102952,0.42134 0.03025,0.0749 0.03554,0.19411 0.0911,0.19866 0.182701,0.0149 0.256158,0.009 0.400256,-0.10928 l -0.513652,0.63275 z"
           style="fill:#2a435d;fill-opacity:1;stroke:#000000;stroke-width:0.2;stroke-linecap:butt;stroke-linejoin:miter;stroke-miterlimit:4;stroke-dasharray:none;stroke-opacity:1" />
        <path
           sodipodi:nodetypes="sssssssss"
           inkscape:connector-curvature="0"
           id="path1445-5"
           d="m 65.960578,-101.74497 c 0.229057,-0.0455 0.431969,-0.28439 0.476428,-0.51364 0.02784,-0.14342 -0.137402,-0.26458 -0.156325,-0.40943 -0.01231,-0.094 0.08823,-0.20823 0.02968,-0.28287 -0.08961,-0.11434 -0.293371,-0.10388 -0.431751,-0.0596 -0.172199,0.0551 -0.358374,0.19507 -0.39454,0.37221 -0.03853,0.18835 0.203246,0.33828 0.230761,0.52854 0.0115,0.0791 -0.06867,0.16828 -0.02968,0.23821 0.04912,0.0882 0.17634,0.14624 0.275438,0.12654 z"
           style="fill:#2a435d;fill-opacity:1;stroke:#000000;stroke-width:0.2;stroke-linecap:butt;stroke-linejoin:miter;stroke-miterlimit:4;stroke-dasharray:none;stroke-opacity:1" />
        <path
           sodipodi:nodetypes="csssscc"
           inkscape:connector-curvature="0"
           id="path1426-4-3"
           d="m 62.974382,-88.41997 c 0.263782,-0.146133 0.475917,-0.305564 1.124986,-0.05763 0.803492,0.306955 0.569234,1.342036 0.469642,1.630564 -0.115317,0.334125 0.02209,0.777414 0.05993,0.930024 0.01841,0.07408 -0.339095,-0.247544 -0.463223,-0.320541 -0.548335,-0.322474 -1.709435,-1.468486 -1.908071,-1.729837 0.01902,-0.445671 0.521577,-0.363772 0.716736,-0.45258 z"
           style="fill:#2a435d;fill-opacity:1;stroke:#000000;stroke-width:0.2;stroke-linecap:butt;stroke-linejoin:miter;stroke-miterlimit:4;stroke-dasharray:none;stroke-opacity:1" />
      </g>
    </g>
  </g>
</svg>
