<?xml version="1.0" encoding="UTF-8" standalone="no"?>
<!-- Created with Inkscape (http://www.inkscape.org/) -->

<svg
   xmlns:dc="http://purl.org/dc/elements/1.1/"
   xmlns:cc="http://creativecommons.org/ns#"
   xmlns:rdf="http://www.w3.org/1999/02/22-rdf-syntax-ns#"
   xmlns:svg="http://www.w3.org/2000/svg"
   xmlns="http://www.w3.org/2000/svg"
   xmlns:sodipodi="http://sodipodi.sourceforge.net/DTD/sodipodi-0.dtd"
   xmlns:inkscape="http://www.inkscape.org/namespaces/inkscape"
   width="300"
   height="150"
   viewBox="0 0 79.374999 39.687501"
   version="1.1"
   id="svg853"
   inkscape:version="0.92.3 (2405546, 2018-03-11)"
   sodipodi:docname="cartographix-wb-alt2.svg">
  <defs
     id="defs847">
    <filter
       style="color-interpolation-filters:sRGB"
       inkscape:label="Drop Shadow"
       id="filter17768">
      <feFlood
         flood-opacity="0.937255"
         flood-color="rgb(0,0,0)"
         result="flood"
         id="feFlood17758" />
      <feComposite
         in="flood"
         in2="SourceGraphic"
         operator="out"
         result="composite1"
         id="feComposite17760" />
      <feGaussianBlur
         in="composite1"
         stdDeviation="0.5"
         result="blur"
         id="feGaussianBlur17762" />
      <feOffset
         dx="-0.5"
         dy="-0.5"
         result="offset"
         id="feOffset17764" />
      <feComposite
         in="offset"
         in2="SourceGraphic"
         operator="atop"
         result="composite2"
         id="feComposite17766" />
    </filter>
  </defs>
  <sodipodi:namedview
     id="base"
     pagecolor="#ffffff"
     bordercolor="#666666"
     borderopacity="1.0"
     inkscape:pageopacity="0.0"
     inkscape:pageshadow="2"
     inkscape:zoom="6.7505128"
     inkscape:cx="157.71051"
     inkscape:cy="78.753321"
     inkscape:document-units="mm"
     inkscape:current-layer="layer1"
     showgrid="false"
     units="px"
     inkscape:window-width="1920"
     inkscape:window-height="1017"
     inkscape:window-x="-8"
     inkscape:window-y="-8"
     inkscape:window-maximized="1">
    <inkscape:grid
       type="xygrid"
       id="grid1398"
       spacingx="1.3229167"
       spacingy="1.3229167" />
  </sodipodi:namedview>
  <metadata
     id="metadata850">
    <rdf:RDF>
      <cc:Work
         rdf:about="">
        <dc:format>image/svg+xml</dc:format>
        <dc:type
           rdf:resource="http://purl.org/dc/dcmitype/StillImage" />
        <dc:title></dc:title>
      </cc:Work>
    </rdf:RDF>
  </metadata>
  <g
     inkscape:label="Layer 1"
     inkscape:groupmode="layer"
     id="layer1"
     transform="translate(0,-257.31248)">
    <text
       id="text1983-9"
       y="276.59158"
       x="2.4073017"
       style="font-style:normal;font-variant:normal;font-weight:normal;font-stretch:normal;font-size:2.79312205px;line-height:0.80000001;font-family:'Gill Sans Ultra Bold Condensed';-inkscape-font-specification:'Gill Sans Ultra Bold Condensed, ';letter-spacing:0px;word-spacing:0px;fill:#333333;fill-opacity:1;stroke:#000000;stroke-width:0.07936508;stroke-miterlimit:4;stroke-dasharray:none;stroke-opacity:1"
       xml:space="preserve"><tspan
         style="font-style:normal;font-variant:normal;font-weight:900;font-stretch:normal;font-size:15.46960068px;line-height:0.80000001;font-family:Montserrat;-inkscape-font-specification:'Montserrat, Heavy';font-variant-ligatures:normal;font-variant-caps:normal;font-variant-numeric:normal;font-feature-settings:normal;text-align:start;writing-mode:lr-tb;text-anchor:start;fill:#333333;fill-opacity:1;stroke:#000000;stroke-width:0.07936508;stroke-miterlimit:4;stroke-dasharray:none;stroke-opacity:1"
         y="276.59158"
         x="2.4073017"
         sodipodi:role="line"
         id="tspan8914">CART</tspan><tspan
         id="tspan18074"
         style="font-style:normal;font-variant:normal;font-weight:900;font-stretch:normal;font-size:15.46960068px;line-height:0.80000001;font-family:Montserrat;-inkscape-font-specification:'Montserrat, Heavy';font-variant-ligatures:normal;font-variant-caps:normal;font-variant-numeric:normal;font-feature-settings:normal;text-align:start;writing-mode:lr-tb;text-anchor:start;fill:#333333;fill-opacity:1;stroke:#000000;stroke-width:0.07936508;stroke-miterlimit:4;stroke-dasharray:none;stroke-opacity:1"
         y="288.96725"
         x="2.4073017"
         sodipodi:role="line">GRAPHIX</tspan></text>
    <path
       style="opacity:1;fill:#333333;fill-opacity:1;stroke:#000000;stroke-width:0.29996252;stroke-miterlimit:4;stroke-dasharray:none;stroke-opacity:1"
       d="M 198.07617 28.707031 C 196.12232 28.70718 194.22655 28.956533 192.41797 29.423828 C 191.33346 29.704136 190.28084 30.062971 189.26562 30.494141 C 186.55665 31.644409 184.11714 33.308403 182.06836 35.365234 C 178.73944 38.70765 176.4415 43.087337 175.69727 47.978516 C 175.52552 49.107249 175.43746 50.262519 175.4375 51.439453 C 175.44355 57.185507 177.61775 62.71589 181.52148 66.917969 C 181.57799 66.294762 182.30121 66.40586 182.58789 66.275391 C 182.98351 66.056178 183.30191 65.815443 184.27539 66.1875 C 185.48047 66.647884 185.12983 68.200057 184.98047 68.632812 C 184.80779 69.133156 185.01339 69.797449 185.07031 70.027344 C 185.07069 70.028845 185.06624 70.026056 185.06641 70.027344 C 185.06758 70.028172 185.06914 70.028469 185.07031 70.029297 C 188.37131 72.361791 192.22402 73.7556 196.22461 74.089844 C 196.30471 74.096365 196.38451 74.103693 196.46484 74.109375 C 196.99981 74.148314 197.53717 74.171251 198.07617 74.171875 C 198.07682 74.171876 198.07747 74.171874 198.07812 74.171875 C 199.65335 74.16988 201.18899 73.989874 202.67969 73.677734 C 203.8578 73.431059 205.0109 73.107273 206.11719 72.683594 C 206.47078 72.548176 206.80917 72.384932 207.1543 72.232422 C 207.75374 71.96747 208.33854 71.677836 208.91016 71.363281 C 209.17493 71.217615 209.44868 71.085598 209.70703 70.929688 C 209.7078 70.929221 209.70821 70.928201 209.70898 70.927734 C 209.89941 70.812786 210.07687 70.678991 210.26367 70.558594 C 211.75049 69.60006 213.13079 68.486338 214.35547 67.210938 C 217.57331 63.859822 219.78758 59.502421 220.47266 54.595703 L 220.36133 54.595703 L 220.35938 54.595703 C 219.83834 53.806727 220.52359 53.972831 218.79492 52.230469 L 217.05664 51.203125 L 217.05469 51.203125 C 216.88456 51.279377 216.72521 51.4089 216.57422 51.574219 C 215.58981 52.653372 214.9886 55.32606 214.45312 55.710938 C 214.41254 55.740453 214.37199 55.756231 214.33203 55.757812 C 214.3317 55.757518 214.33041 55.758107 214.33008 55.757812 C 214.11591 55.570417 213.9079 55.364515 213.70508 55.138672 C 213.299 54.686504 212.91605 54.152245 212.5625 53.521484 C 212.56209 53.520761 212.56095 53.520255 212.56055 53.519531 C 212.38372 53.203863 212.21465 52.864548 212.05273 52.498047 L 208.66016 52.453125 C 208.44263 53.316505 207.94454 54.071303 207.35547 54.681641 C 206.37526 55.697704 205.13942 56.309994 204.50586 56.337891 C 204.14884 55.999217 203.81044 55.660978 203.48438 55.322266 C 202.5144 54.31528 201.65141 53.310111 200.73242 52.302734 C 201.94113 53.7967 202.82769 55.291205 204.37305 56.785156 L 206.55469 56.144531 C 206.55539 56.144327 206.55594 56.144735 206.55664 56.144531 C 206.71461 56.09834 206.83558 56.065976 206.89648 56.105469 C 206.89693 56.105737 206.89799 56.105193 206.89844 56.105469 C 206.96006 56.143784 206.96095 56.251872 206.87305 56.488281 C 206.70958 56.928086 206.61957 57.332797 206.54492 57.720703 C 206.39562 58.496516 206.30382 59.205083 205.78906 59.992188 C 205.66018 60.189259 205.50391 60.390392 205.31445 60.599609 C 205.12567 60.808177 204.90457 61.024819 204.64062 61.25 C 205.28336 62.172961 205.52919 64.036866 205.32812 64.951172 C 204.99945 66.445857 204.76309 67.540215 204.18359 68.673828 C 204.18319 68.674614 204.18204 68.674996 204.18164 68.675781 C 203.95005 69.128486 203.66383 69.588836 203.29492 70.082031 C 203.11023 70.329124 202.90537 70.583848 202.67578 70.851562 C 202.67514 70.852307 202.67447 70.852771 202.67383 70.853516 C 201.73598 71.110146 200.7972 71.058744 199.85938 70.853516 C 199.6803 70.714825 199.51666 70.563883 199.36523 70.40625 C 198.30262 69.300074 197.86461 67.767725 197.26953 66.341797 C 197.1878 65.787476 197.28281 65.250919 197.48438 64.722656 C 197.55106 64.547428 197.62901 64.372437 197.7168 64.199219 C 196.87244 63.147641 196.26986 62.729794 195.12695 60.894531 C 194.1909 61.138257 193.262 61.388011 192.06055 61.484375 C 191.59452 61.521753 191.09595 61.539193 190.52734 61.519531 C 190.40553 61.515264 190.26069 61.497747 190.10352 61.464844 C 189.94757 61.432303 189.78003 61.384701 189.60547 61.320312 C 189.60494 61.320118 189.60404 61.320508 189.60352 61.320312 C 189.42881 61.255763 189.2493 61.172326 189.07227 61.072266 C 189.07181 61.072009 189.07077 61.072522 189.07031 61.072266 C 188.89321 60.972046 188.71974 60.852283 188.55664 60.712891 C 187.90215 60.153539 187.42432 59.265846 187.65234 57.929688 C 188.10772 55.261303 187.87173 54.623811 189.27539 52.273438 C 189.27606 52.273169 189.27668 52.273706 189.27734 52.273438 C 190.71938 51.693396 190.79155 51.39671 193.05469 50.816406 C 193.27476 50.77572 193.4545 50.817202 193.60547 50.902344 C 193.60599 50.902637 193.6069 50.902049 193.60742 50.902344 C 193.68237 50.944792 193.7502 50.998756 193.8125 51.058594 C 194.06385 51.299452 194.22348 51.644539 194.38867 51.798828 C 194.42944 51.836643 194.47085 51.863099 194.51367 51.873047 C 194.51417 51.873166 194.51513 51.872932 194.51562 51.873047 L 196.12109 52.083984 C 196.29254 52.080593 196.40314 52.033466 196.48242 51.964844 C 196.64206 51.826662 196.67768 51.601357 196.8457 51.460938 C 196.92911 51.391235 197.045 51.341579 197.22461 51.335938 L 200.70898 50.933594 C 200.79888 50.558854 200.57306 50.319461 200.38477 49.75 C 200.26825 49.750189 199.97084 49.761062 199.61914 49.757812 C 199.26627 49.754439 198.85842 49.736885 198.52148 49.683594 C 198.5212 49.68349 198.51982 49.6837 198.51953 49.683594 C 198.48202 49.66994 198.40015 49.636562 198.31055 49.582031 C 198.31018 49.581805 198.30896 49.582258 198.30859 49.582031 C 198.21855 49.526968 198.12268 49.448815 198.05273 49.34375 C 197.91198 49.132326 197.88315 48.811267 198.26367 48.34375 L 198.26562 48.34375 L 199.81445 47.373047 L 202.13672 46.958984 C 201.749 46.845048 201.40687 46.675676 201.10352 46.453125 C 201.10312 46.452837 201.10195 46.453413 201.10156 46.453125 C 200.95011 46.341893 200.80963 46.216749 200.67773 46.078125 C 200.54577 45.93943 200.42197 45.787408 200.30859 45.621094 C 200.41019 46.069086 200.29503 46.367898 200.08984 46.605469 C 200.02183 46.684383 199.94478 46.758031 199.86133 46.826172 C 199.61561 46.78447 199.44631 46.745204 199.29492 46.667969 C 199.21987 46.629821 199.15042 46.580497 199.07617 46.519531 C 199.07586 46.519271 199.07454 46.519792 199.07422 46.519531 C 199.00009 46.45853 198.92219 46.384136 198.83398 46.291016 C 198.70083 47.073302 198.67866 47.765196 198.22656 48.160156 C 198.16247 48.21631 198.09085 48.266983 198.00781 48.310547 L 197.62891 48.791016 C 197.79917 49.346342 197.9172 49.886517 197.76367 50.353516 C 197.76311 50.353895 197.76228 50.353139 197.76172 50.353516 C 197.63028 50.442575 197.51618 50.465602 197.4082 50.460938 C 197.29968 50.45593 197.1974 50.423004 197.09375 50.398438 C 197.09333 50.398086 197.09222 50.398788 197.0918 50.398438 C 196.98016 50.306085 196.86947 50.252982 196.75781 50.154297 C 196.64615 50.055612 196.53352 49.911346 196.42188 49.638672 C 195.89982 48.648133 195.45305 48.545307 194.90234 47.451172 C 194.67444 47.465588 194.41588 47.432367 194.24219 47.527344 C 194.18429 47.559387 194.13598 47.606364 194.10156 47.673828 L 194.53711 48.421875 C 194.70184 48.620138 195.2714 49.089472 195.67383 49.472656 C 195.67416 49.472969 195.67545 49.472344 195.67578 49.472656 C 195.75297 49.485463 195.80781 49.506285 195.84375 49.533203 C 196.10097 49.72288 195.42986 50.227402 195.35156 50.488281 C 195.29542 50.626321 195.23117 50.75747 195.14648 50.867188 C 195.06256 50.976213 194.9577 51.063666 194.81445 51.113281 C 194.81388 51.113481 194.81308 51.113083 194.8125 51.113281 L 194.63477 50.890625 C 194.50324 50.473819 194.66419 50.055516 194.67969 49.638672 C 194.48584 49.446885 194.27381 49.256474 194.02148 49.070312 C 194.02108 49.070018 194.01993 49.070607 194.01953 49.070312 C 193.76664 48.883847 193.47393 48.700697 193.11719 48.523438 C 192.96088 48.536477 192.80468 48.562559 192.64844 48.599609 C 192.17973 48.710612 191.71055 48.913794 191.24219 49.103516 C 190.82445 49.611682 190.82295 51.427787 190.54883 51.482422 C 190.51012 51.490137 190.46762 51.463818 190.41602 51.392578 C 190.41549 51.391865 190.41459 51.3933 190.41406 51.392578 C 189.71112 51.906669 189.73975 51.795189 189.36523 51.873047 C 189.3458 51.877089 189.32611 51.880647 189.30664 51.884766 C 189.11805 51.924654 188.92862 51.964778 188.73438 51.933594 C 188.73382 51.933503 188.73298 51.933685 188.73242 51.933594 C 188.62549 51.916162 188.51773 51.875141 188.4082 51.802734 C 188.40788 51.802519 188.40657 51.80295 188.40625 51.802734 C 188.29647 51.729819 188.18527 51.622735 188.07227 51.470703 C 188.07193 51.470255 188.07065 51.471152 188.07031 51.470703 C 187.79649 50.715176 187.94417 50.495334 187.88086 50.007812 C 187.87161 49.761822 187.8945 49.537821 188.05078 49.402344 C 188.10235 49.357643 188.16736 49.32152 188.25195 49.298828 L 189.71094 48.623047 C 189.63274 48.552551 189.56425 48.504672 189.5 48.458984 C 189.49961 48.458706 189.49844 48.459263 189.49805 48.458984 C 189.43389 48.413316 189.37536 48.36736 189.32031 48.298828 C 189.20922 48.160511 189.11125 47.928931 189.00781 47.40625 C 190.32581 46.19621 190.33393 45.279598 190.90625 44.625 C 191.09662 44.407261 191.34765 44.217082 191.73242 44.056641 C 191.22922 43.213088 191.40108 42.932284 191.59766 42.671875 C 191.5983 42.67184 191.59897 42.671909 191.59961 42.671875 C 191.70689 42.66623 191.81461 42.677545 191.92188 42.707031 C 191.92252 42.707207 191.92319 42.706854 191.92383 42.707031 C 192.03119 42.736726 192.13678 42.785577 192.24414 42.851562 C 192.24469 42.851896 192.24555 42.851228 192.24609 42.851562 C 192.35359 42.917773 192.46085 43.001775 192.56836 43.105469 C 192.67667 43.209733 192.7862 43.333059 192.89453 43.476562 L 194.90234 43.341797 C 195.02358 42.042243 195.39304 41.433212 195.83984 41.044922 C 196.10729 40.812506 196.40143 40.65894 196.68945 40.484375 C 196.38431 40.468421 196.05902 40.487918 195.75977 40.460938 C 195.7591 40.460877 195.75848 40.460998 195.75781 40.460938 C 195.60859 40.447379 195.46671 40.422707 195.33594 40.375 C 195.33539 40.374798 195.33454 40.375203 195.33398 40.375 C 195.26891 40.351143 195.20683 40.319424 195.14844 40.283203 C 195.14801 40.282936 195.14691 40.28347 195.14648 40.283203 C 195.08809 40.246825 195.03466 40.203718 194.98438 40.152344 C 194.57918 39.738406 194.45844 38.795435 194.99023 36.648438 C 194.45538 37.708629 193.92156 38.630847 193.38672 39.904297 C 194.18486 40.331195 194.37148 40.879399 194.5918 41.421875 C 194.26489 41.823488 193.93075 42.312616 193.61133 42.619141 C 193.61074 42.619708 193.60996 42.620528 193.60938 42.621094 C 193.5944 42.635426 193.57936 42.642755 193.56445 42.65625 C 193.42098 42.786456 193.28191 42.882922 193.14648 42.908203 C 193.07103 42.922003 192.99585 42.915703 192.92383 42.884766 C 192.8526 42.854451 192.78404 42.799204 192.7168 42.716797 C 192.71641 42.716326 192.71523 42.717269 192.71484 42.716797 L 192.17773 41.644531 L 190.66211 42.582031 L 190.66016 42.582031 C 189.75217 41.799178 189.98363 40.891358 189.72266 40.037109 C 191.30178 37.474661 191.92522 35.945009 192.23242 34.955078 C 192.43722 34.295124 192.50152 33.87492 192.61523 33.548828 C 192.78546 33.059698 193.06703 32.781932 194.09961 32.222656 C 194.99155 32.6107 195.75981 32.585073 196.46289 32.771484 C 196.63854 32.818093 196.81023 32.878158 196.97852 32.960938 C 196.97908 32.961212 196.97991 32.960662 196.98047 32.960938 C 197.14828 33.043616 197.31234 33.150982 197.47461 33.289062 C 197.8007 33.566009 198.11732 33.972265 198.43164 34.589844 C 198.31325 34.961751 198.20134 35.196259 198.05664 35.351562 C 197.81664 35.610119 197.48355 35.645688 196.86914 35.705078 C 197.04936 35.750077 197.22889 35.7913 197.41016 35.84375 C 197.41077 35.843927 197.4115 35.843572 197.41211 35.84375 C 197.59343 35.896282 197.77644 35.960325 197.96289 36.048828 C 197.96347 36.049103 197.96426 36.048552 197.96484 36.048828 C 198.15142 36.137385 198.34131 36.253188 198.53711 36.40625 C 198.53759 36.406626 198.53858 36.405874 198.53906 36.40625 C 198.73473 36.559382 198.93557 36.75201 199.14453 36.998047 C 199.78228 35.493339 200.39525 34.511074 200.99023 33.861328 C 202.29868 32.432464 203.52577 32.619104 204.77148 32.445312 C 204.77213 32.445223 204.77279 32.445402 204.77344 32.445312 C 204.89035 31.878569 205.12041 31.465303 205.43945 31.189453 C 205.86388 30.82249 206.44664 30.698026 207.13867 30.78125 C 207.31126 30.801913 207.49053 30.836993 207.67578 30.882812 C 207.30149 30.705436 206.9234 30.536989 206.54102 30.380859 C 206.54045 30.380629 206.53963 30.38109 206.53906 30.380859 C 206.15613 30.224541 205.76906 30.078166 205.37891 29.943359 C 205.37832 29.943156 205.37754 29.943562 205.37695 29.943359 C 204.20535 29.538648 203.00355 29.230475 201.7832 29.023438 C 201.78257 29.02333 201.78189 29.023545 201.78125 29.023438 C 201.37489 28.954532 200.9666 28.898141 200.55664 28.851562 C 200.556 28.851489 200.55533 28.851636 200.55469 28.851562 C 200.14473 28.80502 199.73296 28.768151 199.32031 28.744141 C 199.31966 28.744103 199.31901 28.744178 199.31836 28.744141 C 198.90506 28.720128 198.49126 28.708234 198.07617 28.707031 z M 185.06641 70.027344 C 183.78026 69.117556 182.59246 68.075076 181.52148 66.917969 C 181.52096 66.923954 181.51943 66.929562 181.51758 66.935547 C 182.58305 68.082683 183.76677 69.117009 185.04688 70.023438 C 185.05107 70.022113 185.06728 70.033997 185.06641 70.027344 z M 187.69141 41.701172 C 187.86927 41.859534 187.51541 42.388001 187.72461 42.839844 L 188.23828 42.539062 C 188.36112 42.512606 188.48459 42.189498 188.60742 42.761719 C 188.57492 43.049341 188.6214 43.252892 188.37305 43.621094 C 188.66275 43.467267 188.75104 43.576531 188.74414 43.808594 L 188.96484 44.537109 C 189.27374 44.585487 189.58172 44.622934 189.89062 44.960938 C 189.94452 45.279552 189.81062 45.679074 189.72656 45.765625 C 189.63476 45.860113 189.98472 45.910047 189.93555 46 L 188.89844 46.345703 L 187.9707 47.082031 L 187.83789 46.9375 L 188.60742 45.988281 C 188.39131 46.165919 188.28181 46.174643 188.00781 46.152344 C 187.92451 46.144785 187.91641 45.965768 187.87109 45.853516 C 188.03418 45.81572 188.13201 45.554159 188.02539 45.222656 C 187.93669 44.946751 187.9772 44.933834 188.26172 44.871094 C 188.13892 44.572511 187.90406 43.610161 187.78125 43.900391 C 187.59515 43.969178 187.40875 43.926694 187.22266 43.755859 L 186.91016 42.929688 C 186.97176 42.191773 187.27363 41.964076 187.69141 41.701172 z M 187.29492 44.347656 C 187.41405 44.355215 187.5246 44.395051 187.5918 44.480469 C 187.6796 44.592343 187.52839 44.763169 187.54688 44.904297 C 187.57522 45.12162 187.82301 45.304438 187.78125 45.519531 C 187.71454 45.863468 187.40996 46.220804 187.06641 46.289062 C 186.9178 46.319299 186.72795 46.231893 186.6543 46.099609 C 186.59579 45.994916 186.71446 45.860865 186.69727 45.742188 C 186.65596 45.456833 186.29378 45.231701 186.35156 44.949219 C 186.40576 44.683518 186.6851 44.473245 186.94336 44.390625 C 187.04715 44.356609 187.17575 44.338585 187.29492 44.347656 z M 215.45898 55.4375 C 215.72113 55.518382 215.67991 55.956486 215.66211 56.207031 C 215.64208 56.489362 215.61561 56.948261 215.32031 56.945312 C 215.11973 56.943498 214.96757 56.634262 214.92773 56.4375 C 214.88733 56.237185 215.02594 56.067471 215.11328 55.902344 C 215.20388 55.730753 215.24722 55.372152 215.45898 55.4375 z M 207.30078 62.681641 C 208.01261 62.683039 208.09116 63.931434 208.15234 64.640625 C 208.22113 65.439315 208.34801 66.733879 207.58398 66.976562 C 207.06492 67.14135 206.54056 66.413827 206.35352 65.902344 C 206.16333 65.382243 206.45051 64.79147 206.60547 64.259766 C 206.76644 63.707728 206.72578 62.680545 207.30078 62.681641 z "
       transform="matrix(0.26458333,0,0,0.26458333,0,257.31248)"
       id="path1396-1-59" />
  </g>
</svg>
