<?xml version="1.0" encoding="UTF-8" standalone="no"?>
<!-- Created with Inkscape (http://www.inkscape.org/) -->

<svg
   xmlns:dc="http://purl.org/dc/elements/1.1/"
   xmlns:cc="http://creativecommons.org/ns#"
   xmlns:rdf="http://www.w3.org/1999/02/22-rdf-syntax-ns#"
   xmlns:svg="http://www.w3.org/2000/svg"
   xmlns="http://www.w3.org/2000/svg"
   xmlns:sodipodi="http://sodipodi.sourceforge.net/DTD/sodipodi-0.dtd"
   xmlns:inkscape="http://www.inkscape.org/namespaces/inkscape"
   width="300"
   height="150"
   viewBox="0 0 79.374999 39.687501"
   version="1.1"
   id="svg853"
   sodipodi:docname="cartographix-wb-alt.svg"
   inkscape:version="0.92.3 (2405546, 2018-03-11)">
  <defs
     id="defs847">
    <filter
       style="color-interpolation-filters:sRGB"
       inkscape:label="Drop Shadow"
       id="filter17768">
      <feFlood
         flood-opacity="0.937255"
         flood-color="rgb(0,0,0)"
         result="flood"
         id="feFlood17758" />
      <feComposite
         in="flood"
         in2="SourceGraphic"
         operator="out"
         result="composite1"
         id="feComposite17760" />
      <feGaussianBlur
         in="composite1"
         stdDeviation="0.5"
         result="blur"
         id="feGaussianBlur17762" />
      <feOffset
         dx="-0.5"
         dy="-0.5"
         result="offset"
         id="feOffset17764" />
      <feComposite
         in="offset"
         in2="SourceGraphic"
         operator="atop"
         result="composite2"
         id="feComposite17766" />
    </filter>
  </defs>
  <sodipodi:namedview
     id="base"
     pagecolor="#ffffff"
     bordercolor="#666666"
     borderopacity="1.0"
     inkscape:pageopacity="0.0"
     inkscape:pageshadow="2"
     inkscape:zoom="3.3752564"
     inkscape:cx="162.96021"
     inkscape:cy="93.958188"
     inkscape:document-units="mm"
     inkscape:current-layer="layer1"
     showgrid="true"
     units="px"
     inkscape:window-width="1920"
     inkscape:window-height="1017"
     inkscape:window-x="-8"
     inkscape:window-y="-8"
     inkscape:window-maximized="1">
    <inkscape:grid
       type="xygrid"
       id="grid1398"
       spacingx="1.3229167"
       spacingy="1.3229167" />
  </sodipodi:namedview>
  <metadata
     id="metadata850">
    <rdf:RDF>
      <cc:Work
         rdf:about="">
        <dc:format>image/svg+xml</dc:format>
        <dc:type
           rdf:resource="http://purl.org/dc/dcmitype/StillImage" />
        <dc:title></dc:title>
      </cc:Work>
    </rdf:RDF>
  </metadata>
  <g
     inkscape:label="Layer 1"
     inkscape:groupmode="layer"
     id="layer1"
     transform="translate(0,-257.31248)">
    <text
       id="text1983-9-2"
       y="276.58411"
       x="2.3892391"
       style="font-style:normal;font-variant:normal;font-weight:normal;font-stretch:normal;font-size:2.79312205px;line-height:0.80000001;font-family:'Gill Sans Ultra Bold Condensed';-inkscape-font-specification:'Gill Sans Ultra Bold Condensed, ';letter-spacing:0px;word-spacing:0px;fill:#333333;fill-opacity:1;stroke:none;stroke-width:0.07936508;stroke-miterlimit:4;stroke-dasharray:none;stroke-opacity:1;filter:url(#filter8894)"
       xml:space="preserve"><tspan
         style="font-style:normal;font-variant:normal;font-weight:900;font-stretch:normal;font-size:15.46959972px;line-height:0.80000001;font-family:Montserrat;-inkscape-font-specification:'Montserrat, Heavy';font-variant-ligatures:normal;font-variant-caps:normal;font-variant-numeric:normal;font-feature-settings:normal;text-align:start;writing-mode:lr-tb;text-anchor:start;fill:#333333;stroke:none;stroke-width:0.07936508;stroke-miterlimit:4;stroke-dasharray:none;stroke-opacity:1"
         y="276.58411"
         x="2.3892391"
         sodipodi:role="line"
         id="tspan8914-2">CART</tspan><tspan
         id="tspan18074-5"
         style="font-style:normal;font-variant:normal;font-weight:900;font-stretch:normal;font-size:15.46959972px;line-height:0.80000001;font-family:Montserrat;-inkscape-font-specification:'Montserrat, Heavy';font-variant-ligatures:normal;font-variant-caps:normal;font-variant-numeric:normal;font-feature-settings:normal;text-align:start;writing-mode:lr-tb;text-anchor:start;fill:#333333;stroke:none;stroke-width:0.07936508;stroke-miterlimit:4;stroke-dasharray:none;stroke-opacity:1"
         y="288.95978"
         x="2.3892391"
         sodipodi:role="line">GRAPHIX</tspan></text>
    <path
       style="opacity:1;fill:#333333;fill-opacity:1;stroke:none;stroke-width:0.07936508;stroke-miterlimit:4;stroke-dasharray:none;stroke-opacity:1;filter:url(#filter8894)"
       d="m 52.389593,264.90043 c -3.308522,2.5e-4 -5.990442,2.69305 -5.990331,6.01462 0.0016,1.52031 0.576858,2.98356 1.60972,4.09536 0.01495,-0.16489 0.206304,-0.1355 0.282155,-0.17002 0.104674,-0.058 0.188917,-0.12164 0.446484,-0.0232 0.318844,0.12181 0.22607,0.53249 0.186552,0.64699 -0.04576,0.13259 0.0088,0.30892 0.02376,0.36948 1.007639,0.712 2.209456,1.09474 3.44165,1.09606 2.984629,-0.004 5.511429,-2.21213 5.925738,-5.17953 h -0.02997 c -0.137859,-0.20875 0.04345,-0.16531 -0.41393,-0.62632 l -0.460436,-0.2713 c -0.360897,0.16176 -0.549384,1.2 -0.720887,1.2051 -0.227017,-0.19864 -0.431191,-0.47461 -0.602549,-0.86248 l -0.898136,-0.0119 c -0.153389,0.60881 -0.831156,1.01644 -1.099156,1.02785 -0.377846,-0.35843 -0.676738,-0.71697 -1.004075,-1.07539 0.322974,0.39781 0.557435,0.79592 0.968934,1.19373 l 0.577744,-0.1695 c 0.08351,-0.0244 0.130233,-0.0342 0.08371,0.0909 -0.173001,0.46546 -0.03088,0.78246 -0.590661,1.25987 0.170055,0.2442 0.235098,0.73736 0.181901,0.97927 -0.139139,0.63275 -0.21567,0.99452 -0.701765,1.56114 -0.24814,0.0679 -0.496523,0.0543 -0.744657,0 -0.379873,-0.2942 -0.505346,-0.76217 -0.685231,-1.19321 -0.02879,-0.19525 0.02492,-0.38326 0.11834,-0.5674 -0.223403,-0.27823 -0.382836,-0.38879 -0.685231,-0.87437 -0.34385,0.0895 -0.678862,0.1846 -1.217496,0.16588 -0.256921,-0.009 -0.880745,-0.24321 -0.760161,-0.94981 0.120486,-0.706 0.05805,-0.87468 0.429432,-1.49655 0.382053,-0.15361 0.400873,-0.2319 0.99994,-0.38551 0.232907,-0.043 0.294322,0.2583 0.386021,0.27957 l 0.424781,0.0558 c 0.182825,-0.003 0.101481,-0.19152 0.292489,-0.19792 l 0.921906,-0.10645 c 0.02379,-0.0992 -0.03597,-0.16249 -0.08578,-0.31316 -0.06182,1.4e-4 -0.315217,0.0106 -0.493512,-0.0176 -0.04,-0.0146 -0.268644,-0.1076 -0.0677,-0.3545 l 0.410311,-0.25683 0.614433,-0.10956 c -0.20547,-0.0604 -0.364053,-0.17798 -0.484208,-0.3545 0.03609,0.15823 -0.02957,0.24697 -0.118338,0.31936 -0.129632,-0.022 -0.177495,-0.0424 -0.271819,-0.14211 -0.04032,0.23659 -0.04149,0.44225 -0.218591,0.53485 l -0.100254,0.12713 c 0.04505,0.14693 0.07628,0.28985 0.03566,0.41341 -0.06995,0.0474 -0.122401,0.0249 -0.177249,0.0119 -0.05908,-0.0489 -0.118171,-0.0567 -0.17725,-0.20102 -0.138128,-0.26208 -0.256336,-0.28928 -0.402045,-0.57877 -0.08064,0.005 -0.175964,-0.0125 -0.212389,0.0589 l 0.115239,0.19792 c 0.04362,0.0525 0.194784,0.17659 0.301273,0.27802 0.166056,0.027 -0.06214,0.18995 -0.08578,0.26872 -0.02961,0.0728 -0.06584,0.13921 -0.14211,0.16536 l -0.04702,-0.0589 c -0.0348,-0.11029 0.0078,-0.22096 0.01188,-0.33125 -0.102751,-0.10166 -0.225152,-0.20123 -0.41393,-0.29507 -0.165423,0.0138 -0.330668,0.0865 -0.496093,0.15348 -0.126135,0.15344 -0.108257,0.75797 -0.218591,0.60565 -0.185986,0.13582 -0.178411,0.10649 -0.277503,0.12712 -0.11022,0.0229 -0.222655,0.0552 -0.342614,-0.10645 -0.07245,-0.19991 -0.03389,-0.25807 -0.05064,-0.38706 -0.0033,-0.0865 0.0085,-0.16334 0.0987,-0.18758 l 0.386025,-0.1788 c -0.08324,-0.075 -0.131464,-0.0462 -0.186037,-0.32195 0.464715,-0.42664 0.313026,-0.71617 0.720887,-0.88625 -0.133139,-0.22318 -0.08767,-0.29748 -0.03565,-0.36639 0.11422,-0.006 0.228393,0.0616 0.342614,0.21291 l 0.531749,-0.0357 c 0.05128,-0.54965 0.269317,-0.63269 0.472839,-0.75603 -0.323619,-0.0169 -0.731263,0.12121 -0.449066,-1.01648 -0.141799,0.28122 -0.283501,0.52539 -0.425297,0.863 0.211175,0.11295 0.260549,0.258 0.318842,0.40153 -0.172988,0.21252 -0.353,0.51872 -0.496094,0.34261 l -0.142111,-0.2837 -0.401523,0.24804 c -0.2402,-0.20712 -0.178994,-0.44733 -0.248047,-0.67334 1.114158,-1.80796 0.429008,-1.67297 1.157552,-2.06757 0.471985,0.20534 0.813985,-0.0264 1.146183,0.62631 -0.08333,0.26176 -0.152689,0.26984 -0.413412,0.29508 0.191387,0.0478 0.380622,0.081 0.602547,0.34261 0.539895,-1.27415 1.009266,-1.13821 1.488797,-1.20509 h 5.29e-4 c 0.08238,-0.39935 0.374922,-0.51106 0.768427,-0.41341 -0.79451,-0.3766 -1.661806,-0.57313 -2.540413,-0.57568 z m 2.540413,0.57568 c -36.632043,21.01094 -18.316022,10.50547 0,0 z m 3.430275,5.84512 c -38.918893,17.1142 -19.459448,8.5571 0,0 z m 0,0 -0.01497,0.22789 c 0.0064,-0.0759 0.01143,-0.15184 0.01497,-0.22789 z m -0.01497,0.22789 c -0.0089,0.0672 -0.01887,0.13419 -0.02997,0.20102 h 0.01706 z m -9.39736,4.28449 c -0.340651,-0.24087 -0.655341,-0.51677 -0.938961,-0.8232 -2.65e-4,0.003 -0.0019,0.006 -0.0021,0.009 0.07883,0.10371 0.539467,0.55881 0.75706,0.68678 0.04926,0.029 0.191278,0.15652 0.183968,0.12712 z m 0.693497,-7.49515 c 0.04706,0.0419 -0.04655,0.18173 0.0088,0.30128 l 0.135909,-0.0796 c 0.0325,-0.007 0.06517,-0.0925 0.09767,0.0589 -0.0086,0.0761 0.0037,0.12995 -0.06201,0.22737 0.07665,-0.0407 0.100015,-0.0118 0.09819,0.0496 l 0.05839,0.19276 c 0.08173,0.0128 0.163216,0.0227 0.244946,0.11213 0.01426,0.0843 -0.02117,0.19001 -0.04341,0.21291 -0.02429,0.025 0.0683,0.0382 0.05529,0.062 l -0.274402,0.0915 -0.245462,0.19482 -0.03514,-0.0382 0.203605,-0.25115 c -0.05718,0.047 -0.08615,0.0493 -0.158647,0.0434 -0.02204,-0.002 -0.02418,-0.0494 -0.03617,-0.0791 0.04315,-0.01 0.06903,-0.0792 0.04082,-0.16691 -0.02347,-0.073 -0.01275,-0.0764 0.06253,-0.093 -0.03249,-0.079 -0.09463,-0.33362 -0.127124,-0.25683 -0.04924,0.0182 -0.09856,0.007 -0.147796,-0.0382 l -0.08268,-0.21859 c 0.0163,-0.19524 0.09617,-0.25549 0.206706,-0.32505 z m -0.104902,0.70022 c 0.03152,0.002 0.06077,0.0125 0.07855,0.0351 0.02323,0.0296 -0.01678,0.0748 -0.01188,0.11214 0.0075,0.0575 0.07306,0.10587 0.06201,0.16278 -0.01765,0.091 -0.09824,0.18554 -0.189137,0.2036 -0.03933,0.008 -0.08955,-0.0151 -0.109038,-0.0501 -0.01548,-0.0277 0.01593,-0.0632 0.01138,-0.0946 -0.01093,-0.0755 -0.106757,-0.13507 -0.09147,-0.20981 0.01434,-0.0703 0.08825,-0.12593 0.15658,-0.14779 0.02746,-0.009 0.06149,-0.0138 0.09302,-0.0114 z m 7.451738,2.93419 c 0.06936,0.0214 0.05845,0.13731 0.05374,0.2036 -0.0053,0.0747 -0.0123,0.19612 -0.09043,0.19534 -0.05307,-4.8e-4 -0.09333,-0.0823 -0.10387,-0.13436 -0.01069,-0.053 0.02598,-0.0979 0.04909,-0.14159 0.02397,-0.0454 0.03543,-0.14028 0.09147,-0.12299 z m -2.158524,1.91668 c 0.188339,3.7e-4 0.209122,0.33067 0.225309,0.51831 0.0182,0.21132 0.05177,0.55384 -0.150379,0.61805 -0.137337,0.0436 -0.276071,-0.14889 -0.325562,-0.28422 -0.05032,-0.13761 0.02567,-0.29392 0.06667,-0.4346 0.04259,-0.14606 0.03183,-0.41783 0.183967,-0.41754 z"
       id="path1396-1-59-1"
       inkscape:connector-curvature="0"
       sodipodi:nodetypes="ccccccccccccccccccccccccccccccccccccccccccccccccccccccccccccccccccccccccccccccccccccccccccccccccccccccccccccccccccccccccccccccccccccccccccccccccccccc" />
    <path
       sodipodi:type="star"
       style="opacity:1;fill:#ff0000;fill-opacity:1;stroke:none;stroke-width:0.25;stroke-miterlimit:4;stroke-dasharray:none;stroke-opacity:1"
       id="path2649"
       sodipodi:sides="3"
       sodipodi:cx="60.854172"
       sodipodi:cy="262.60416"
       sodipodi:r1="4.1834297"
       sodipodi:r2="1.7165533"
       sodipodi:arg1="1.2490458"
       sodipodi:arg2="2.2962433"
       inkscape:flatsided="false"
       inkscape:rounded="0"
       inkscape:randomized="0"
       d="m 62.177088,266.57291 -2.461798,-2.68442 -2.959615,-2.12303 3.555675,-0.78977 3.318402,-1.50159 -1.093877,3.47419 z"
       inkscape:transform-center-x="0.66145913"
       inkscape:transform-center-y="0.41934773" />
  </g>
</svg>
