<?xml version="1.0" encoding="UTF-8" standalone="no"?>
<!-- Created with Inkscape (http://www.inkscape.org/) -->

<svg
   xmlns:dc="http://purl.org/dc/elements/1.1/"
   xmlns:cc="http://creativecommons.org/ns#"
   xmlns:rdf="http://www.w3.org/1999/02/22-rdf-syntax-ns#"
   xmlns:svg="http://www.w3.org/2000/svg"
   xmlns="http://www.w3.org/2000/svg"
   xmlns:sodipodi="http://sodipodi.sourceforge.net/DTD/sodipodi-0.dtd"
   xmlns:inkscape="http://www.inkscape.org/namespaces/inkscape"
   width="300"
   height="150"
   viewBox="0 0 79.374997 39.6875"
   version="1.1"
   id="svg6387"
   inkscape:version="0.92.3 (2405546, 2018-03-11)"
   sodipodi:docname="claptrap-wb-alt.svg"
   inkscape:export-filename="C:\Code\claptrap-wb.png"
   inkscape:export-xdpi="96"
   inkscape:export-ydpi="96">
  <title
     id="title7636">Claptrap</title>
  <defs
     id="defs6381" />
  <sodipodi:namedview
     id="base"
     pagecolor="#aa0000"
     bordercolor="#666666"
     borderopacity="1.0"
     inkscape:pageopacity="0"
     inkscape:pageshadow="2"
     inkscape:zoom="2.8284271"
     inkscape:cx="131.10429"
     inkscape:cy="24.670651"
     inkscape:document-units="mm"
     inkscape:current-layer="layer1"
     showgrid="false"
     fit-margin-top="0"
     fit-margin-left="0"
     fit-margin-right="0"
     fit-margin-bottom="0"
     inkscape:window-width="1920"
     inkscape:window-height="1017"
     inkscape:window-x="1912"
     inkscape:window-y="-8"
     inkscape:window-maximized="1"
     inkscape:pagecheckerboard="true"
     units="px">
    <inkscape:grid
       type="xygrid"
       id="grid7489"
       originx="0"
       originy="0"
       spacingx="1.3229166"
       spacingy="1.3229166" />
  </sodipodi:namedview>
  <metadata
     id="metadata6384">
    <rdf:RDF>
      <cc:Work
         rdf:about="">
        <dc:format>image/svg+xml</dc:format>
        <dc:type
           rdf:resource="http://purl.org/dc/dcmitype/StillImage" />
        <dc:title>Claptrap</dc:title>
      </cc:Work>
    </rdf:RDF>
  </metadata>
  <g
     inkscape:label="Layer 1"
     inkscape:groupmode="layer"
     id="layer1"
     transform="translate(0.50001997,-11.220824)">
    <path
       style="display:inline;fill:none;fill-opacity:1;stroke:#333333;stroke-width:0.39072838;stroke-linecap:square;stroke-linejoin:miter;stroke-miterlimit:4;stroke-dasharray:none;stroke-opacity:1;paint-order:markers fill stroke"
       d="M 60.348303,23.441916 55.69619,38.948949 h 3.10141 l 0.861568,-2.584504 h 4.401536 c 0.33689,0.983307 0.664234,1.895814 0.939709,2.584504 H 68.10182 L 63.44971,23.441916 Z m 1.550704,6.202813 c 0,0 0.49796,1.634976 1.135769,3.618309 h -2.341807 z"
       id="path852-4-0-79-2-4-5"
       inkscape:connector-curvature="0"
       sodipodi:nodetypes="ccccccccccccc" />
    <path
       style="display:inline;fill:#333333;fill-opacity:1;stroke:none;stroke-width:0.39072838;stroke-linecap:square;stroke-linejoin:miter;stroke-miterlimit:4;stroke-dasharray:none;stroke-opacity:1;paint-order:markers fill stroke"
       d="m 59.728018,22.821615 -4.652113,15.507033 h 3.10141 l 0.861568,-2.584504 h 4.401535 c 0.33689,0.983307 0.664235,1.895814 0.93971,2.584504 h 3.101406 L 62.829425,22.821615 Z m 1.550703,6.202813 c 0,0 0.49796,1.634976 1.13577,3.618309 h -2.341807 z"
       id="path852-4-0-79-2-9"
       inkscape:connector-curvature="0"
       sodipodi:nodetypes="ccccccccccccc" />
    <path
       inkscape:connector-curvature="0"
       style="display:inline;fill:none;fill-opacity:1;stroke:#333333;stroke-width:0.39072838;stroke-linecap:butt;stroke-linejoin:miter;stroke-miterlimit:4;stroke-dasharray:none;stroke-opacity:1"
       d="m 39.189876,22.821615 v 3.618309 h 2.894646 v 11.888724 h 3.51493 V 26.439924 h 2.894645 v -3.618309 z"
       id="path852-4-0-9-9-9-6-0"
       sodipodi:nodetypes="ccccccccc" />
    <path
       inkscape:connector-curvature="0"
       style="display:inline;fill:#333333;fill-opacity:1;stroke:none;stroke-width:0.39072838;stroke-linecap:butt;stroke-linejoin:miter;stroke-miterlimit:4;stroke-dasharray:none;stroke-opacity:1"
       d="m 37.949309,22.201314 v 3.618309 h 3.514928 v 11.888724 h 3.51493 V 25.819623 h 3.308164 v -3.618309 z"
       id="path852-4-0-9-9-9-8"
       sodipodi:nodetypes="ccccccccc" />
    <path
       style="display:inline;fill:none;fill-opacity:1;stroke:#333333;stroke-width:0.39072838;stroke-linecap:square;stroke-linejoin:miter;stroke-miterlimit:4;stroke-dasharray:none;stroke-opacity:1;paint-order:markers fill stroke"
       d="m 23.476082,21.994615 -4.652111,15.507033 h 3.101407 l 0.861569,-2.584504 h 4.401535 c 0.336891,0.983307 0.664232,1.895814 0.93971,2.584504 h 3.101406 L 26.577489,21.994615 Z m 1.550703,6.202813 c 0,0 0.497962,1.634976 1.135769,3.618309 h -2.341805 z"
       id="path852-4-0-79-0-0"
       inkscape:connector-curvature="0"
       sodipodi:nodetypes="ccccccccccccc" />
    <path
       style="display:inline;fill:#333333;fill-opacity:1;stroke:none;stroke-width:0.39072838;stroke-linecap:square;stroke-linejoin:miter;stroke-miterlimit:4;stroke-dasharray:none;stroke-opacity:1;paint-order:markers fill stroke"
       d="m 22.855798,21.374314 -4.652109,15.507033 h 3.101406 l 0.861569,-2.584504 h 4.401535 c 0.336891,0.983307 0.664232,1.895814 0.939709,2.584504 h 3.101407 l -4.65211,-15.507033 z m 1.550704,6.202813 c 0,0 0.497961,1.634976 1.135769,3.618309 h -2.341805 z"
       id="path852-4-0-79-8"
       inkscape:connector-curvature="0"
       sodipodi:nodetypes="ccccccccccccc" />
    <path
       style="display:inline;fill:none;fill-opacity:1;stroke:#333333;stroke-width:0.39072838;stroke-linecap:butt;stroke-linejoin:miter;stroke-miterlimit:4;stroke-dasharray:none;stroke-opacity:1"
       d="m 12.000876,23.441916 h 3.618307 v 11.888728 h 3.618308 v 3.618305 h -7.236615 z"
       id="path852-4-7-0-8"
       inkscape:connector-curvature="0"
       sodipodi:nodetypes="ccccccc" />
    <path
       inkscape:connector-curvature="0"
       style="display:inline;fill:none;fill-opacity:1;stroke:#333333;stroke-width:0.39072838;stroke-linecap:butt;stroke-linejoin:miter;stroke-miterlimit:4;stroke-dasharray:none;stroke-opacity:1"
       d="m 30.609313,23.958815 v 15.507032 h 3.618309 l 1e-6,-5.169008 h 0.930424 c 0,0 5.272393,1.2e-5 5.272393,-5.169012 -0.002,-5.169528 -5.169014,-5.169012 -5.169014,-5.169012 z m 3.618309,3.101406 1.030323,-0.0075 c 0,0 2.063776,-0.008 2.079616,2.009075 0.01582,2.0171 -2.076135,2.133599 -2.076135,2.133599 h -1.033804 z"
       id="path852-4-0-9-25-8-1"
       sodipodi:nodetypes="cccccccccczccc" />
    <path
       style="display:inline;fill:none;fill-opacity:1;stroke:#333333;stroke-width:0.39072838;stroke-linecap:butt;stroke-linejoin:miter;stroke-miterlimit:4;stroke-dasharray:none;stroke-opacity:1"
       d="M 47.460296,25.199358 V 40.70639 h 3.618309 v -5.169008 h 0.310543 l 2.688895,5.169008 h 3.721684 l -3.118888,-5.7128 c 1.436876,-0.574602 2.600575,-1.778514 2.600575,-4.62522 -0.002,-5.169528 -5.169008,-5.169012 -5.169008,-5.169012 z m 4.648675,3.093939 c 0,0 2.063683,-0.008 2.079519,2.009048 0.01582,2.0171 -2.076084,2.13363 -2.076084,2.13363 h -1.033801 v -4.135211 z"
       id="path852-4-0-9-25-3-6-3"
       inkscape:connector-curvature="0"
       sodipodi:nodetypes="ccccccccccccccccc" />
    <path
       inkscape:connector-curvature="0"
       style="display:inline;fill:none;fill-opacity:1;stroke:#333333;stroke-width:0.39072838;stroke-linecap:butt;stroke-linejoin:miter;stroke-miterlimit:4;stroke-dasharray:none;stroke-opacity:1"
       d="m 67.41268,23.958818 v 15.507033 h 3.618309 v -5.169008 h 0.930422 c 0,0 5.272395,1.2e-5 5.272395,-5.169012 -0.002,-5.169528 -5.169016,-5.169013 -5.169016,-5.169013 z m 3.618309,3.101407 1.030324,-0.0075 c 0,0 2.063776,-0.008 2.079612,2.009075 0.01583,2.0171 -2.076135,2.133599 -2.076135,2.133599 h -1.033801 z"
       id="path852-4-0-9-25-5-0-4"
       sodipodi:nodetypes="cccccccccczccc" />
    <path
       style="display:inline;fill:#333333;fill-opacity:1;stroke:none;stroke-width:0.39072838;stroke-linecap:butt;stroke-linejoin:miter;stroke-miterlimit:4;stroke-dasharray:none;stroke-opacity:1"
       d="m 11.380593,22.821615 h 3.618308 v 11.888728 h 3.618306 v 3.618305 h -7.236614 z"
       id="path852-4-7-7"
       inkscape:connector-curvature="0"
       sodipodi:nodetypes="ccccccc" />
    <path
       inkscape:connector-curvature="0"
       style="display:inline;fill:#333333;fill-opacity:1;stroke:none;stroke-width:0.39072838;stroke-linecap:butt;stroke-linejoin:miter;stroke-miterlimit:4;stroke-dasharray:none;stroke-opacity:1"
       d="m 29.98903,23.338514 v 15.507032 h 3.618309 l 10e-7,-5.169008 h 0.930422 c 0,0 5.272391,1.2e-5 5.272391,-5.169012 -0.002,-5.169528 -5.169012,-5.169012 -5.169012,-5.169012 z m 3.618309,3.101406 1.03032,-0.0075 c 0,0 2.063777,-0.008 2.079617,2.009075 0.01582,2.0171 -2.076135,2.1336 -2.076135,2.1336 h -1.033802 z"
       id="path852-4-0-9-25-0"
       sodipodi:nodetypes="cccccccccczccc" />
    <path
       style="display:inline;fill:#333333;fill-opacity:1;stroke:none;stroke-width:0.39072838;stroke-linecap:butt;stroke-linejoin:miter;stroke-miterlimit:4;stroke-dasharray:none;stroke-opacity:1"
       d="m 46.840011,24.579057 v 15.507032 h 3.618309 v -5.169008 h 0.310543 l 2.688895,5.169008 h 3.721687 l -3.118891,-5.7128 c 1.436876,-0.574601 2.600579,-1.778514 2.600579,-4.62522 -0.002,-5.169528 -5.169013,-5.169012 -5.169013,-5.169012 z m 4.648675,3.093939 c 0,0 2.063679,-0.008 2.079519,2.009048 0.01582,2.0171 -2.076085,2.133631 -2.076085,2.133631 h -1.0338 v -4.135212 z"
       id="path852-4-0-9-25-3-65"
       inkscape:connector-curvature="0"
       sodipodi:nodetypes="ccccccccccccccccc" />
    <path
       inkscape:connector-curvature="0"
       style="display:inline;fill:#333333;fill-opacity:1;stroke:none;stroke-width:0.39072838;stroke-linecap:butt;stroke-linejoin:miter;stroke-miterlimit:4;stroke-dasharray:none;stroke-opacity:1"
       d="M 66.792395,23.338518 V 38.84555 h 3.618309 v -5.169008 h 0.930422 c 0,0 5.272395,1.2e-5 5.272395,-5.169012 -0.002,-5.169528 -5.169016,-5.169012 -5.169016,-5.169012 z m 3.618309,3.101406 1.030323,-0.0075 c 0,0 2.063773,-0.008 2.079613,2.009075 0.01583,2.0171 -2.076135,2.133599 -2.076135,2.133599 h -1.033801 z"
       id="path852-4-0-9-25-5-9"
       sodipodi:nodetypes="cccccccccczccc" />
    <path
       style="display:inline;fill:none;stroke:#333333;stroke-width:0.39072838;stroke-linecap:butt;stroke-linejoin:miter;stroke-miterlimit:4;stroke-dasharray:none;stroke-opacity:1;fill-opacity:1"
       d="m 12.621159,23.028416 -2e-6,3.618309 c -9.3042194,-3.101407 -9.3042194,10.33802 0,7.236614 l 2e-6,3.618309 c -14.4732323,3.618305 -14.4732323,-18.091541 0,-14.473232 z"
       id="path852-0-0-7"
       inkscape:connector-curvature="0"
       sodipodi:nodetypes="ccccc" />
    <path
       style="display:inline;fill:#333333;fill-opacity:1;stroke:none;stroke-width:0.39072838;stroke-linecap:butt;stroke-linejoin:miter;stroke-miterlimit:4;stroke-dasharray:none;stroke-opacity:1"
       d="m 12.000876,22.408115 -2e-6,3.618309 c -9.3042189,-3.101406 -9.3042189,10.338021 0,7.236614 l 2e-6,3.618309 c -14.4732318,3.618305 -14.4732318,-18.091541 0,-14.473232 z"
       id="path852-0-9"
       inkscape:connector-curvature="0"
       sodipodi:nodetypes="ccccc" />
  </g>
</svg>
