<?xml version="1.0" encoding="UTF-8" standalone="no"?>
<!-- Created with Inkscape (http://www.inkscape.org/) -->

<svg
   xmlns:dc="http://purl.org/dc/elements/1.1/"
   xmlns:cc="http://creativecommons.org/ns#"
   xmlns:rdf="http://www.w3.org/1999/02/22-rdf-syntax-ns#"
   xmlns:svg="http://www.w3.org/2000/svg"
   xmlns="http://www.w3.org/2000/svg"
   xmlns:sodipodi="http://sodipodi.sourceforge.net/DTD/sodipodi-0.dtd"
   xmlns:inkscape="http://www.inkscape.org/namespaces/inkscape"
   width="512"
   height="512"
   viewBox="0 0 135.46666 135.46667"
   version="1.1"
   id="svg8"
   inkscape:version="0.92.3 (2405546, 2018-03-11)"
   sodipodi:docname="favicon.svg">
  <defs
     id="defs2">
    <inkscape:path-effect
       effect="bspline"
       id="path-effect867"
       is_visible="true"
       weight="33.333333"
       steps="2"
       helper_size="0"
       apply_no_weight="true"
       apply_with_weight="true"
       only_selected="false" />
    <inkscape:path-effect
       effect="bspline"
       id="path-effect859"
       is_visible="true"
       weight="33.333333"
       steps="2"
       helper_size="0"
       apply_no_weight="true"
       apply_with_weight="true"
       only_selected="false" />
    <inkscape:path-effect
       effect="bspline"
       id="path-effect867-2"
       is_visible="true"
       weight="33.333333"
       steps="2"
       helper_size="0"
       apply_no_weight="true"
       apply_with_weight="true"
       only_selected="false" />
    <inkscape:path-effect
       effect="bspline"
       id="path-effect859-8"
       is_visible="true"
       weight="33.333333"
       steps="2"
       helper_size="0"
       apply_no_weight="true"
       apply_with_weight="true"
       only_selected="false" />
  </defs>
  <sodipodi:namedview
     id="base"
     pagecolor="#ffffff"
     bordercolor="#666666"
     borderopacity="1.0"
     inkscape:pageopacity="0.0"
     inkscape:pageshadow="2"
     inkscape:zoom="0.98994949"
     inkscape:cx="204.92313"
     inkscape:cy="85.091126"
     inkscape:document-units="mm"
     inkscape:current-layer="layer1"
     showgrid="true"
     units="px"
     inkscape:window-width="1920"
     inkscape:window-height="1017"
     inkscape:window-x="-8"
     inkscape:window-y="-8"
     inkscape:window-maximized="1">
    <inkscape:grid
       type="xygrid"
       id="grid815"
       spacingx="4.2333333"
       spacingy="4.2333333"
       empspacing="4" />
  </sodipodi:namedview>
  <metadata
     id="metadata5">
    <rdf:RDF>
      <cc:Work
         rdf:about="">
        <dc:format>image/svg+xml</dc:format>
        <dc:type
           rdf:resource="http://purl.org/dc/dcmitype/StillImage" />
        <dc:title></dc:title>
      </cc:Work>
    </rdf:RDF>
  </metadata>
  <g
     inkscape:label="Layer 1"
     inkscape:groupmode="layer"
     id="layer1"
     transform="translate(0,-161.53332)">
    <path
       style="opacity:1;fill:#333333;fill-opacity:1;stroke:none;stroke-width:0.84804583;stroke-miterlimit:4;stroke-dasharray:none;stroke-opacity:1;filter:url(#filter8894)"
       d="m 67.457128,163.84948 c -35.352774,0.004 -64.0101059,28.77627 -64.0089316,64.26849 0.021373,16.24508 6.1639668,31.88046 17.2004636,43.76047 0.159214,-1.76193 2.204507,-1.44788 3.014988,-1.81673 1.118436,-0.61975 2.018577,-1.29977 4.770799,-0.2479 3.407035,1.30158 2.415661,5.68986 1.993364,6.91332 -0.489387,1.41677 0.09606,3.30093 0.254311,3.94804 10.767025,7.60798 23.608924,11.69771 36.775323,11.71181 31.891907,-0.0428 58.891725,-23.63745 63.318775,-55.34522 h -0.32055 c -1.47308,-2.23058 0.46482,-1.7664 -4.423,-6.69246 l -4.91999,-2.89897 c -3.85623,1.72849 -5.87032,12.82246 -7.70285,12.87696 -2.42581,-2.12254 -4.60744,-5.07138 -6.43849,-9.21591 l -9.596973,-0.12722 c -1.639036,6.50537 -8.881148,10.86104 -11.744825,10.98296 -4.03747,-3.82996 -7.231225,-7.66109 -10.728977,-11.49094 3.451155,4.25074 5.956464,8.5047 10.353488,12.75545 l 6.173361,-1.81116 c 0.89225,-0.26073 1.39156,-0.36546 0.894376,0.9713 -1.84857,4.97361 -0.330173,8.36087 -6.311427,13.46218 1.817051,2.60937 2.512132,7.87897 1.943678,10.46388 -1.486761,6.76117 -2.304512,10.62682 -7.498688,16.68137 -2.651454,0.72553 -5.305503,0.58022 -7.956851,0 -4.059171,-3.14364 -5.399859,-8.14408 -7.321953,-12.74991 -0.307731,-2.08632 0.266077,-4.09528 1.264509,-6.06288 -2.387208,-2.97298 -4.090796,-4.15437 -7.321942,-9.34298 -3.674158,0.95634 -7.253984,1.97253 -13.009451,1.77249 -2.745282,-0.0962 -9.411142,-2.59878 -8.122594,-10.14908 1.287373,-7.54387 0.620829,-9.34627 4.588626,-15.99118 4.082353,-1.6414 4.283455,-2.47795 10.684729,-4.11934 2.488728,-0.46053 3.144927,2.76004 4.124781,2.98731 l 4.538941,0.59625 c 1.953601,-0.0321 1.084333,-2.04646 3.125351,-2.11484 l 9.85096,-1.13747 c 0.254311,-1.05891 -0.384672,-1.73626 -0.916804,-3.34623 -0.660356,0.001 -3.368248,0.1132 -5.273338,-0.18807 -0.42743,-0.15595 -2.870629,-1.14973 -0.723394,-3.78795 l 4.384306,-2.74433 6.56542,-1.1707 c -2.195523,-0.64538 -3.89001,-1.90177 -5.173978,-3.78795 0.385741,1.69073 -0.31628,2.63896 -1.264509,3.41248 -1.385136,-0.23508 -1.896541,-0.45306 -2.904497,-1.51851 -0.430612,2.52806 -0.443435,4.72561 -2.335702,5.71507 l -1.071216,1.35844 c 0.480838,1.56999 0.815284,3.09715 0.381478,4.41744 -0.747996,0.50649 -1.3079,0.26607 -1.893992,0.12722 -0.631504,-0.52253 -1.262701,-0.60587 -1.893981,-2.14799 -1.475982,-2.80043 -2.739082,-3.09106 -4.29595,-6.18438 -0.861248,0.0534 -1.880312,-0.13349 -2.269471,0.62937 l 1.231394,2.11485 c 0.465865,0.56099 2.081285,1.88693 3.219179,2.97076 1.774294,0.28849 -0.663562,2.02967 -0.916804,2.87138 -0.316292,0.77788 -0.703102,1.48749 -1.518504,1.76692 l -0.50221,-0.62936 c -0.371861,-1.1785 0.08549,-2.36105 0.127214,-3.53954 -1.097932,-1.08627 -2.405809,-2.15022 -4.423,-3.15294 -1.767565,0.14747 -3.533322,0.9243 -5.300911,1.64 -1.347851,1.63957 -1.1568,8.09919 -2.335819,6.47161 -1.987269,1.45128 -1.906382,1.13787 -2.965186,1.35832 -1.177738,0.24469 -2.379093,0.58983 -3.660924,-1.13747 -0.774688,-2.13611 -0.362231,-2.75757 -0.540669,-4.13588 -0.03206,-0.92428 0.08537,-1.74535 1.054635,-2.00435 l 4.124769,-1.91057 c -0.88902,-0.80246 -1.4047,-0.49366 -1.987798,-3.44014 4.965596,-4.55882 3.344726,-7.65254 7.702869,-9.46992 -1.422644,-2.38477 -0.937109,-3.17868 -0.381467,-3.91502 1.220484,-0.0641 2.440545,0.65822 3.66103,2.27503 l 5.681837,-0.38146 c 0.548161,-5.87322 2.877792,-6.76054 5.052471,-8.07848 -3.458001,-0.18057 -7.813782,1.29518 -4.79836,-10.86147 -1.515191,3.00495 -3.029315,5.614 -4.544495,9.22148 2.256529,1.20692 2.78407,2.75683 3.40693,4.2905 -1.84837,2.27086 -3.771944,5.54273 -5.300923,3.66092 l -1.518503,-3.03144 -4.290501,2.6504 c -2.566515,-2.21316 -1.912559,-4.77989 -2.650397,-7.19489 11.905237,-19.31873 4.58414,-17.87632 12.36887,-22.09276 5.043277,2.19413 8.697777,-0.28211 12.247364,6.69235 -0.890089,2.797 -1.631544,2.88335 -4.417445,3.15305 2.045069,0.51076 4.067063,0.86551 6.438464,3.66091 5.768937,-13.61477 10.784335,-12.16222 15.908287,-12.87685 h 0.0059 c 0.880471,-4.2672 4.006268,-5.46086 8.210962,-4.41743 -8.489629,-4.02412 -17.756963,-6.12411 -27.145241,-6.15136 z m 63.799072,68.60868 -0.16026,2.43508 c 0.0641,-0.81102 0.12187,-1.62246 0.16026,-2.43508 z m -0.16026,2.43508 c -0.0962,0.71805 -0.20197,1.43387 -0.32056,2.14798 h 0.18272 z M 30.681593,280.67463 c -3.639974,-2.57378 -7.002561,-5.52188 -10.033156,-8.79619 -0.0035,0.0321 -0.02137,0.0641 -0.02137,0.0962 0.842,1.10817 5.764439,5.97108 8.089478,7.33849 0.526789,0.30989 2.043883,1.67249 1.965791,1.35832 z m 7.41031,-80.08849 c 0.503279,0.44771 -0.496868,1.94184 0.09618,3.21929 l 1.45226,-0.85056 c 0.34727,-0.0748 0.696678,-0.98841 1.043948,0.62936 -0.09618,0.81316 0.04274,1.38857 -0.662494,2.42953 0.819571,-0.43488 1.068657,-0.12611 1.049304,0.53001 l 0.624034,2.0597 c 0.873003,0.1368 1.743962,0.24257 2.617269,1.19816 0.152815,0.90078 -0.226526,2.03032 -0.463739,2.27501 -0.259655,0.26715 0.729817,0.40819 0.590907,0.6625 l -2.932082,0.97773 -2.622812,2.08172 -0.375066,-0.40819 2.175548,-2.68363 c -0.611211,0.50221 -0.921091,0.52679 -1.695145,0.46373 -0.235064,-0.0214 -0.258574,-0.52784 -0.38681,-0.84519 0.460546,-0.10675 0.737298,-0.84629 0.435967,-1.78352 -0.251105,-0.78001 -0.135681,-0.81635 0.667837,-0.99373 -0.347271,-0.84414 -1.010821,-3.56486 -1.35842,-2.74433 -0.525732,0.19448 -1.05359,0.0748 -1.579204,-0.40817 l -0.883677,-2.33571 c 0.174163,-2.08622 1.02793,-2.73001 2.208664,-3.47328 z m -1.120902,7.4821 c 0.336584,0.0214 0.649682,0.13348 0.839863,0.37507 0.247899,0.31629 -0.179507,0.79926 -0.127202,1.19825 0.08549,0.6144 0.781088,1.13126 0.662493,1.73936 -0.189136,0.97237 -1.049303,1.98257 -2.021043,2.17555 -0.419937,0.0854 -0.9574,-0.16136 -1.165126,-0.53533 -0.165627,-0.29599 0.169889,-0.67533 0.121871,-1.01084 -0.116493,-0.80675 -1.140666,-1.44328 -0.977705,-2.2419 0.152803,-0.75118 0.943509,-1.34561 1.673115,-1.57921 0.29385,-0.0961 0.65715,-0.14747 0.993734,-0.12187 z m 79.624659,31.35293 c 0.74157,0.22867 0.62403,1.46721 0.5738,2.17553 -0.0534,0.7982 -0.13144,2.09563 -0.96594,2.08729 -0.56741,-0.005 -0.99696,-0.8794 -1.1099,-1.43569 -0.11438,-0.56632 0.27782,-1.0461 0.52465,-1.51294 0.25645,-0.48511 0.37827,-1.49894 0.97772,-1.31419 z m -23.064707,20.48045 c 2.012482,0.005 2.234523,3.53333 2.407524,5.53833 0.194479,2.25805 0.553504,5.918 -1.606871,6.60412 -1.467527,0.46586 -2.94992,-1.59095 -3.478728,-3.03701 -0.537476,-1.47041 0.274615,-3.14065 0.712707,-4.64388 0.455191,-1.56069 0.33979,-4.46466 1.965791,-4.46156 z"
       id="path1396-1-59-0"
       inkscape:connector-curvature="0"
       sodipodi:nodetypes="ccccccccccccccccccccccccccccccccccccccccccccccccccccccccccccccccccccccccccccccccccccccccccccccccccccccccccccccccccccccccccccccccccccccccccccccccccc" />
  </g>
</svg>
