<?xml version="1.0" encoding="UTF-8" standalone="no"?>
<!-- Created with Inkscape (http://www.inkscape.org/) -->

<svg
   xmlns:dc="http://purl.org/dc/elements/1.1/"
   xmlns:cc="http://creativecommons.org/ns#"
   xmlns:rdf="http://www.w3.org/1999/02/22-rdf-syntax-ns#"
   xmlns:svg="http://www.w3.org/2000/svg"
   xmlns="http://www.w3.org/2000/svg"
   xmlns:sodipodi="http://sodipodi.sourceforge.net/DTD/sodipodi-0.dtd"
   xmlns:inkscape="http://www.inkscape.org/namespaces/inkscape"
   width="512"
   height="512"
   viewBox="0 0 135.46666 135.46667"
   version="1.1"
   id="svg8"
   inkscape:version="0.92.3 (2405546, 2018-03-11)"
   sodipodi:docname="favicon-bkg.svg">
  <defs
     id="defs2">
    <inkscape:path-effect
       effect="bspline"
       id="path-effect2897"
       is_visible="true"
       weight="33.333333"
       steps="2"
       helper_size="0"
       apply_no_weight="true"
       apply_with_weight="true"
       only_selected="false" />
    <inkscape:path-effect
       effect="bspline"
       id="path-effect867"
       is_visible="true"
       weight="33.333333"
       steps="2"
       helper_size="0"
       apply_no_weight="true"
       apply_with_weight="true"
       only_selected="false" />
    <inkscape:path-effect
       effect="bspline"
       id="path-effect859"
       is_visible="true"
       weight="33.333333"
       steps="2"
       helper_size="0"
       apply_no_weight="true"
       apply_with_weight="true"
       only_selected="false" />
    <inkscape:path-effect
       effect="bspline"
       id="path-effect867-2"
       is_visible="true"
       weight="33.333333"
       steps="2"
       helper_size="0"
       apply_no_weight="true"
       apply_with_weight="true"
       only_selected="false" />
    <inkscape:path-effect
       effect="bspline"
       id="path-effect859-8"
       is_visible="true"
       weight="33.333333"
       steps="2"
       helper_size="0"
       apply_no_weight="true"
       apply_with_weight="true"
       only_selected="false" />
  </defs>
  <sodipodi:namedview
     id="base"
     pagecolor="#ffffff"
     bordercolor="#666666"
     borderopacity="1.0"
     inkscape:pageopacity="0.0"
     inkscape:pageshadow="2"
     inkscape:zoom="0.98994949"
     inkscape:cx="324.75597"
     inkscape:cy="263.63809"
     inkscape:document-units="mm"
     inkscape:current-layer="layer1"
     showgrid="true"
     units="px"
     inkscape:window-width="1920"
     inkscape:window-height="1017"
     inkscape:window-x="-8"
     inkscape:window-y="-8"
     inkscape:window-maximized="1">
    <inkscape:grid
       type="xygrid"
       id="grid815"
       spacingx="4.2333333"
       spacingy="4.2333333"
       empspacing="4" />
  </sodipodi:namedview>
  <metadata
     id="metadata5">
    <rdf:RDF>
      <cc:Work
         rdf:about="">
        <dc:format>image/svg+xml</dc:format>
        <dc:type
           rdf:resource="http://purl.org/dc/dcmitype/StillImage" />
        <dc:title></dc:title>
      </cc:Work>
    </rdf:RDF>
  </metadata>
  <g
     inkscape:label="Layer 1"
     inkscape:groupmode="layer"
     id="layer1"
     transform="translate(0,-161.53332)">
    <rect
       style="opacity:1;fill:#e2e5e5;fill-opacity:1;stroke:#e2e5e5;stroke-width:5;stroke-linecap:butt;stroke-linejoin:round;stroke-miterlimit:4;stroke-dasharray:none;stroke-opacity:1;paint-order:markers stroke fill"
       id="rect2901"
       width="127"
       height="127.00001"
       x="4.2333331"
       y="165.76665"
       ry="8.4666739"
       rx="8.4666719" />
    <path
       style="opacity:1;fill:#333333;fill-opacity:1;stroke:none;stroke-width:0.82132059;stroke-miterlimit:4;stroke-dasharray:none;stroke-opacity:1;filter:url(#filter8894)"
       d="m 67.453821,165.87483 c -34.238669,0.004 -61.9928954,27.86941 -61.9917581,62.24313 0.020699,15.73314 5.9697161,30.87579 16.6584091,42.38141 0.154197,-1.7064 2.135035,-1.40225 2.919974,-1.75948 1.08319,-0.60022 1.954964,-1.25881 4.620452,-0.24009 3.299666,1.26057 2.339534,5.51055 1.930546,6.69546 -0.473965,1.37212 0.09303,3.1969 0.246296,3.82362 10.427714,7.36822 22.864914,11.32907 35.616388,11.34273 30.886868,-0.0415 57.035812,-22.89255 61.323352,-53.60108 h -0.31045 c -1.42666,-2.16028 0.45017,-1.71073 -4.28361,-6.48155 l -4.76494,-2.80762 c -3.73471,1.67402 -5.68533,12.41838 -7.46011,12.47116 -2.34936,-2.05565 -4.46224,-4.91156 -6.23559,-8.92548 l -9.29453,-0.12321 c -1.587383,6.30036 -8.601268,10.51877 -11.374699,10.63684 -3.910233,-3.70926 -7.003341,-7.41966 -10.390865,-11.12881 3.342396,4.11678 5.768753,8.23668 10.027209,12.35347 l 5.978814,-1.75408 c 0.864132,-0.25251 1.347707,-0.35394 0.866191,0.94069 -1.790314,4.81687 -0.319768,8.09739 -6.112529,13.03793 1.759788,2.52714 2.432965,7.63068 1.882425,10.13413 -1.439907,6.5481 -2.231888,10.29192 -7.262375,16.15567 -2.567896,0.70267 -5.138306,0.56194 -7.706099,0 -3.931251,-3.04457 -5.229688,-7.88743 -7.09121,-12.34811 -0.298033,-2.02057 0.257692,-3.96622 1.22466,-5.87181 -2.311978,-2.87929 -3.961879,-4.02345 -7.091199,-9.04855 -3.558371,0.9262 -7.025383,1.91037 -12.599472,1.71663 -2.658768,-0.0932 -9.11456,-2.51688 -7.866619,-9.82924 1.246802,-7.30613 0.601264,-9.05173 4.44402,-15.48724 3.953702,-1.58967 4.148466,-2.39986 10.348011,-3.98952 2.410299,-0.44602 3.045818,2.67306 3.994793,2.89317 l 4.395901,0.57746 c 1.892036,-0.0311 1.050162,-1.98197 3.026859,-2.04819 l 9.540518,-1.10163 c 0.246296,-1.02554 -0.37255,-1.68154 -0.887912,-3.24077 -0.639546,9.6e-4 -3.262102,0.10963 -5.107155,-0.18215 -0.41396,-0.15103 -2.780164,-1.1135 -0.700597,-3.66857 l 4.24614,-2.65785 6.358517,-1.13381 c -2.126333,-0.62504 -3.76742,-1.84183 -5.010925,-3.66857 0.373585,1.63744 -0.306313,2.55579 -1.22466,3.30494 -1.341484,-0.22768 -1.836773,-0.43879 -2.812964,-1.47066 -0.417042,2.44839 -0.429461,4.57669 -2.262095,5.53497 l -1.037458,1.31563 c 0.465685,1.52051 0.789591,2.99954 0.369456,4.27822 -0.724424,0.49053 -1.266683,0.25769 -1.834305,0.12322 -0.611603,-0.50607 -1.222908,-0.58678 -1.834294,-2.0803 -1.429468,-2.71218 -2.652763,-2.99365 -4.160568,-5.98949 -0.834106,0.0517 -1.821056,-0.12928 -2.197951,0.60954 l 1.192588,2.0482 c 0.451184,0.54331 2.015696,1.82747 3.11773,2.87714 1.718379,0.2794 -0.64265,1.96571 -0.887912,2.78089 -0.306324,0.75337 -0.680944,1.44061 -1.47065,1.71124 l -0.486383,-0.60953 c -0.360142,-1.14136 0.0828,-2.28664 0.123205,-3.42799 -1.063332,-1.05204 -2.329993,-2.08246 -4.283614,-3.05358 -1.711862,0.14282 -3.421973,0.89517 -5.133858,1.58832 -1.305375,1.5879 -1.120345,7.84395 -2.262209,6.26766 -1.924642,1.40554 -1.846304,1.10201 -2.871741,1.31551 -1.140623,0.23698 -2.304118,0.57125 -3.545554,-1.10162 -0.750274,-2.06879 -0.350815,-2.67067 -0.52363,-4.00554 -0.03105,-0.89515 0.08268,-1.69035 1.021399,-1.94119 l 3.994781,-1.85036 c -0.861003,-0.77717 -1.360432,-0.4781 -1.925154,-3.33172 4.80911,-4.41516 3.23932,-7.41138 7.460121,-9.17149 -1.377811,-2.30962 -0.907577,-3.07851 -0.369445,-3.79164 1.182021,-0.0621 2.363633,0.63747 3.545656,2.20333 l 5.50278,-0.36944 c 0.530886,-5.68813 2.787102,-6.54749 4.893248,-7.82389 -3.349026,-0.17488 -7.567539,1.25436 -4.647145,-10.51918 -1.467441,2.91025 -2.933849,5.43708 -4.40128,8.93087 2.185417,1.16889 2.696333,2.66995 3.299564,4.15529 -1.79012,2.1993 -3.653075,5.36806 -5.13387,3.54555 l -1.470649,-2.93591 -4.15529,2.56688 c -2.485634,-2.14342 -1.852287,-4.62926 -2.566873,-6.96815 11.530056,-18.70992 4.439676,-17.31297 11.979078,-21.39653 4.884344,2.12498 8.423676,-0.27322 11.861402,6.48144 -0.862039,2.70886 -1.580128,2.79249 -4.278234,3.05369 1.980621,0.49466 3.938894,0.83823 6.235563,3.54554 5.587135,-13.18571 10.444478,-11.77894 15.406954,-12.47105 h 0.0057 c 0.852724,-4.13272 3.880015,-5.28877 7.952202,-4.27822 C 85.52222,167.93421 76.546936,165.9004 67.45452,165.874 Z m 61.788509,66.44655 -0.15521,2.35834 c 0.0621,-0.78546 0.11803,-1.57133 0.15521,-2.35834 z m -0.15521,2.35834 c -0.0932,0.69542 -0.1956,1.38868 -0.31045,2.08029 h 0.17696 z m -97.249892,44.33864 c -3.525264,-2.49267 -6.781883,-5.34787 -9.716972,-8.51899 -0.0034,0.0311 -0.0207,0.0621 -0.0207,0.0932 0.815465,1.07325 5.582779,5.78291 7.834546,7.10722 0.510188,0.30013 1.979473,1.61979 1.903842,1.31552 z m 7.176782,-77.56459 c 0.487419,0.4336 -0.48121,1.88065 0.09315,3.11784 l 1.406494,-0.82376 c 0.336326,-0.0724 0.674722,-0.95726 1.011049,0.60953 -0.09315,0.78753 0.04139,1.34481 -0.641617,2.35297 0.793744,-0.42118 1.03498,-0.12214 1.016237,0.5133 l 0.604368,1.99479 c 0.845491,0.13249 1.689003,0.23493 2.534789,1.1604 0.147999,0.8724 -0.219388,1.96634 -0.449125,2.20332 -0.251472,0.25873 0.706817,0.39533 0.572285,0.64162 l -2.839681,0.94692 -2.540156,2.01612 -0.363247,-0.39533 2.106988,-2.59906 c -0.591949,0.48639 -0.892064,0.51019 -1.641724,0.44912 -0.227656,-0.0207 -0.250425,-0.51121 -0.37462,-0.81856 0.446032,-0.10338 0.714063,-0.81962 0.422228,-1.72731 -0.243192,-0.75543 -0.131405,-0.79062 0.646791,-0.96241 -0.336327,-0.81754 -0.978966,-3.45252 -1.315611,-2.65785 -0.509164,0.18835 -1.020387,0.0724 -1.529437,-0.39531 l -0.855829,-2.2621 c 0.168674,-2.02047 0.995536,-2.64398 2.13906,-3.36382 z m -1.085578,7.24631 c 0.325977,0.0207 0.629208,0.12927 0.813396,0.36325 0.240086,0.30632 -0.17385,0.77407 -0.123194,1.16049 0.0828,0.59504 0.756473,1.09561 0.641616,1.68455 -0.183176,0.94172 -1.016236,1.92009 -1.957352,2.10698 -0.406704,0.0827 -0.927229,-0.15627 -1.128409,-0.51845 -0.160407,-0.28667 0.164535,-0.65405 0.118031,-0.97899 -0.112822,-0.78133 -1.10472,-1.3978 -0.946894,-2.17125 0.147988,-0.72751 0.913775,-1.3032 1.620388,-1.52944 0.28459,-0.0931 0.636441,-0.14282 0.962418,-0.11803 z m 77.115368,30.36488 c 0.71821,0.22146 0.60437,1.42097 0.55572,2.10697 -0.0517,0.77304 -0.1273,2.02959 -0.9355,2.02151 -0.54953,-0.005 -0.96554,-0.85169 -1.07492,-1.39045 -0.11078,-0.54847 0.26906,-1.01313 0.50812,-1.46526 0.24836,-0.46982 0.36635,-1.4517 0.9469,-1.27277 z m -22.337843,19.83503 c 1.949061,0.005 2.164105,3.42198 2.331654,5.36379 0.18835,2.18689 0.536061,5.7315 -1.556232,6.396 -1.42128,0.45118 -2.856957,-1.54081 -3.3691,-2.9413 -0.520538,-1.42407 0.265961,-3.04168 0.690247,-4.49753 0.440846,-1.51151 0.329082,-4.32397 1.903841,-4.32096 z"
       id="path1396-1-59-0"
       inkscape:connector-curvature="0"
       sodipodi:nodetypes="ccccccccccccccccccccccccccccccccccccccccccccccccccccccccccccccccccccccccccccccccccccccccccccccccccccccccccccccccccccccccccccccccccccccccccccccccccc" />
  </g>
</svg>
