<?xml version="1.0" encoding="UTF-8" standalone="no"?>
<!-- Created with Inkscape (http://www.inkscape.org/) -->

<svg
   xmlns:dc="http://purl.org/dc/elements/1.1/"
   xmlns:cc="http://creativecommons.org/ns#"
   xmlns:rdf="http://www.w3.org/1999/02/22-rdf-syntax-ns#"
   xmlns:svg="http://www.w3.org/2000/svg"
   xmlns="http://www.w3.org/2000/svg"
   xmlns:sodipodi="http://sodipodi.sourceforge.net/DTD/sodipodi-0.dtd"
   xmlns:inkscape="http://www.inkscape.org/namespaces/inkscape"
   width="300"
   height="150"
   viewBox="0 0 79.37499 39.687501"
   version="1.1"
   id="svg8"
   inkscape:version="0.92.3 (2405546, 2018-03-11)"
   sodipodi:docname="wheres-william-wb-alt.svg"
   inkscape:export-filename="C:\Code\wheres-william-wb.png"
   inkscape:export-xdpi="96"
   inkscape:export-ydpi="96">
  <defs
     id="defs2">
    <filter
       style="color-interpolation-filters:sRGB;"
       inkscape:label="Drop Shadow"
       id="filter18223">
      <feFlood
         flood-opacity="0.937255"
         flood-color="rgb(0,0,0)"
         result="flood"
         id="feFlood18213" />
      <feComposite
         in="flood"
         in2="SourceGraphic"
         operator="in"
         result="composite1"
         id="feComposite18215" />
      <feGaussianBlur
         in="composite1"
         stdDeviation="0.5"
         result="blur"
         id="feGaussianBlur18217" />
      <feOffset
         dx="0.5"
         dy="0.5"
         result="offset"
         id="feOffset18219" />
      <feComposite
         in="SourceGraphic"
         in2="offset"
         operator="over"
         result="composite2"
         id="feComposite18221" />
    </filter>
  </defs>
  <sodipodi:namedview
     id="base"
     pagecolor="#ffffff"
     bordercolor="#666666"
     borderopacity="1.0"
     inkscape:pageopacity="0.0"
     inkscape:pageshadow="2"
     inkscape:zoom="4"
     inkscape:cx="159.09909"
     inkscape:cy="59.363986"
     inkscape:document-units="mm"
     inkscape:current-layer="layer1"
     showgrid="false"
     units="px"
     inkscape:measure-start="0,0"
     inkscape:measure-end="0,0"
     inkscape:window-width="1920"
     inkscape:window-height="1017"
     inkscape:window-x="1912"
     inkscape:window-y="-8"
     inkscape:window-maximized="1"
     fit-margin-top="50"
     fit-margin-left="50"
     fit-margin-right="50"
     fit-margin-bottom="50"
     inkscape:pagecheckerboard="true"
     inkscape:snap-text-baseline="true">
    <inkscape:grid
       type="xygrid"
       id="grid1366"
       originx="0"
       originy="0"
       spacingx="1.3229166"
       spacingy="1.3229166" />
  </sodipodi:namedview>
  <metadata
     id="metadata5">
    <rdf:RDF>
      <cc:Work
         rdf:about="">
        <dc:format>image/svg+xml</dc:format>
        <dc:type
           rdf:resource="http://purl.org/dc/dcmitype/StillImage" />
        <dc:title></dc:title>
      </cc:Work>
    </rdf:RDF>
  </metadata>
  <g
     inkscape:label="Layer 1"
     inkscape:groupmode="layer"
     id="layer1"
     transform="translate(37.854907,-291.7305)">
    <path
       style="opacity:1;fill:#333333;fill-opacity:1;stroke:none;stroke-width:0.19338301;stroke-opacity:1"
       d="M 54.910156,29.021484 C 27.559939,29.020824 5.388037,51.280172 5.3886719,78.738281 5.3891142,106.19563 27.560701,128.45378 54.910156,128.45312 79.579258,128.42318 100.4643,110.16897 103.89062,85.642578 h -0.25 c -1.13951,-1.725543 0.3608,-1.367026 -3.41992,-5.177734 L 96.412109,78.21875 c -2.9832,1.337046 -4.539364,9.920938 -5.957031,9.962891 C 88.57852,86.5397 86.889129,84.25703 85.472656,81.050781 l -7.421875,-0.09766 c -1.267944,5.032441 -6.868678,8.403559 -9.083984,8.498047 -3.123307,-2.962772 -5.596978,-5.9259 -8.302735,-8.888672 2.669734,3.28834 4.608282,6.576932 8.009766,9.865234 l 4.775391,-1.40039 c 0.688762,-0.201789 1.077873,-0.280664 0.693359,0.753906 -1.430041,3.847635 -0.255612,6.46782 -4.882812,10.414064 1.405784,2.01861 1.943616,6.09416 1.503906,8.09375 -1.150152,5.23034 -1.784647,8.22251 -5.802734,12.90625 -2.051135,0.56134 -4.101206,0.44901 -6.152344,0 -3.140036,-2.4319 -4.179067,-6.30227 -5.666016,-9.86523 -0.237948,-1.61401 0.20442,-3.16729 0.976563,-4.68946 -1.846651,-2.2998 -3.164461,-3.21274 -5.664063,-7.226562 -2.842299,0.739772 -5.608199,1.521772 -10.060547,1.367192 -2.123769,-0.0738 -7.281931,-2.008807 -6.285156,-7.849613 0.995924,-5.835855 0.48089,-7.228719 3.550781,-12.369141 3.158102,-1.269732 3.313684,-1.917768 8.265625,-3.1875 1.92519,-0.355918 2.433437,2.132846 3.191407,2.308594 l 3.511718,0.464844 c 1.511214,-0.02646 0.837133,-1.583428 2.416016,-1.636719 l 7.61914,-0.878907 c 0.196509,-0.819628 -0.297246,-1.34246 -0.708984,-2.58789 -0.510992,7.56e-4 -2.602371,0.08671 -4.076172,-0.146484 -0.330618,-0.120416 -2.223542,-0.890734 -0.5625,-2.931641 l 3.394532,-2.123047 5.078124,-0.904297 c -1.698421,-0.499049 -3.010744,-1.470563 -4.003906,-2.929687 0.298273,1.307943 -0.242725,2.038344 -0.976562,2.636718 -1.071523,-0.182135 -1.466423,-0.347635 -2.246094,-1.171875 -0.333313,1.955604 -0.344632,3.654492 -1.808594,4.419922 l -0.830078,1.048828 c 0.372888,1.214589 0.628704,2.398581 0.292969,3.419922 -0.578222,0.391937 -1.011508,0.205373 -1.464844,0.09766 -0.488364,-0.403919 -0.976476,-0.469404 -1.464844,-1.66211 -1.141734,-2.166349 -2.115898,-2.392186 -3.320312,-4.785156 -0.666645,0.04188 -1.456811,-0.102043 -1.757813,0.488281 l 0.951172,1.636719 c 0.360594,0.434192 1.611906,1.456509 2.492188,2.294922 1.37263,0.223521 -0.513621,1.571519 -0.708985,2.222656 -0.244732,0.601776 -0.541419,1.150999 -1.171875,1.367188 l -0.390625,-0.488282 c -0.287334,-0.911622 0.06477,-1.824706 0.09766,-2.736328 -0.849321,-0.840302 -1.857546,-1.665734 -3.417969,-2.441406 -1.367426,0.114179 -2.73609,0.715604 -4.103516,1.269531 -1.042624,1.268296 -0.89461,6.264934 -1.80664,5.005859 -1.537384,1.12218 -1.475834,0.880325 -2.294922,1.050782 -0.911105,0.189543 -1.840438,0.457383 -2.832031,-0.878906 -0.598912,-1.65241 -0.277648,-2.132977 -0.416016,-3.199219 -0.0268,-0.715503 0.06671,-1.350467 0.8125,-1.550781 l 3.191406,-1.476563 c -0.688112,-0.620334 -1.086011,-0.382639 -1.537109,-2.662109 3.841375,-3.52664 2.585602,-5.920301 5.957031,-7.326172 -1.100375,-1.844901 -0.722882,-2.457694 -0.292969,-3.027344 0.944175,-0.05152 1.88786,0.507129 2.832031,1.757812 L 47.9668,61.027343 c 0.423844,-4.543408 2.223899,-5.230435 3.90625,-6.25 -2.675074,-0.139881 -6.043594,1.003792 -3.710938,-8.400391 -1.172076,2.324561 -2.343548,4.34017 -3.515625,7.130859 1.745556,0.933657 2.154856,2.133919 2.636719,3.320313 -1.429927,1.756724 -2.920697,4.287716 -4.103515,2.832031 l -1.171876,-2.34375 -3.320312,2.050782 c -1.985412,-1.712089 -1.479959,-3.698148 -2.050781,-5.566407 9.209741,-14.944705 3.55008,-13.831904 9.572265,-17.09375 3.901471,1.697462 6.728639,-0.217314 9.47461,5.177735 -0.688838,2.163628 -1.264767,2.232776 -3.419922,2.441406 1.582027,0.395263 3.14796,0.669726 4.982422,2.832031 4.462839,-10.532183 8.34277,-9.410059 12.30664,-9.962891 l 1.430318,-5.479826 C 65.890177,29.958931 60.470173,29.022696 54.910156,29.021484 Z m 49.353514,53.048828 c -69.509113,45.286458 -34.754557,22.643228 0,0 z m 0,0 -0.125,1.916016 c 0.054,-0.637805 0.0956,-1.276596 0.125,-1.916016 z m -0.125,1.916016 c -0.0734,0.553443 -0.15611,1.105604 -0.24805,1.65625 h 0.14063 z M 32.191406,57.4375 c 0.388876,0.346583 -0.383221,1.503992 0.07422,2.492188 l 1.123047,-0.660157 c 0.2686,-0.0593 0.538029,-0.763536 0.80664,0.488281 -0.07111,0.629292 0.02905,1.075556 -0.513671,1.88086 0.633645,-0.336265 0.826043,-0.09747 0.810547,0.410156 l 0.484374,1.591797 c 0.675576,0.106091 1.349819,0.188459 2.025391,0.927734 0.117914,0.697059 -0.177605,1.570412 -0.361328,1.759766 -0.200734,0.206929 0.566399,0.315183 0.458984,0.511719 l -2.269531,0.755859 -2.027344,1.613281 -0.292968,-0.318359 1.685546,-2.076172 c -0.472675,0.388914 -0.715167,0.408509 -1.314453,0.359375 -0.181984,-0.01493 -0.199691,-0.406674 -0.298828,-0.652344 0.357203,-0.08126 0.57105,-0.65553 0.337891,-1.380859 -0.193977,-0.603402 -0.104706,-0.630381 0.517578,-0.767578 -0.2686,-0.653065 -0.78217,-2.759734 -1.050781,-2.125 -0.406972,0.150198 -0.813731,0.05436 -1.220703,-0.316406 L 30.482422,60.125 c 0.134657,-1.613858 0.795189,-2.112483 1.708984,-2.6875 z m -0.867187,5.789062 c 0.260596,0.02008 0.501508,0.105316 0.648437,0.292969 0.191773,0.244838 -0.137946,0.619325 -0.09766,0.927735 0.06209,0.475124 0.602957,0.871396 0.511719,1.341796 -0.14583,0.752013 -0.811172,1.536256 -1.5625,1.685547 -0.32507,0.06459 -0.741147,-0.126503 -0.902344,-0.416015 -0.127672,-0.229342 0.135074,-0.521597 0.09766,-0.78125 -0.09028,-0.624076 -0.883973,-1.114583 -0.757812,-1.732422 0.11865,-0.581065 0.730056,-1.041995 1.294922,-1.222656 0.226947,-0.07257 0.506982,-0.115782 0.767578,-0.0957 z m 61.439453,24.244141 c 0.04729,-0.0085 0.10032,-0.0042 0.158203,0.01367 0.573245,0.176882 0.482262,1.133609 0.443359,1.681641 -0.0438,0.617159 -0.104335,1.621621 -0.75,1.615234 -0.438636,-0.0038 -0.770353,-0.680764 -0.857422,-1.111328 -0.08852,-0.437821 0.217262,-0.810628 0.408204,-1.171875 0.173456,-0.328063 0.266605,-0.968124 0.597656,-1.027344 z m -17.6875,15.853517 c 1.556821,0.003 1.731428,2.73212 1.865234,4.2832 0.15069,1.74679 0.428814,4.5805 -1.242187,5.11133 -1.135238,0.36057 -2.286239,-1.23091 -2.695313,-2.34961 -0.415971,-1.13756 0.213832,-2.42895 0.552735,-3.5918 0.351874,-1.20733 0.261938,-3.4555 1.519531,-3.45312 z"
       transform="matrix(0.26458333,0,0,0.26458333,-37.854907,291.7305)"
       id="path1396-1-8"
       inkscape:connector-curvature="0"
       sodipodi:nodetypes="ccccccccccccccccscccccccccccccccccccccccccccccccccccccccccccccccccccccccccccccccccccccccccccccccccccccccccccccscccccccccssccccscscscccc" />
    <path
       style="fill:#333333;fill-opacity:1;stroke:none;stroke-width:0.13297878px;stroke-linecap:butt;stroke-linejoin:miter;stroke-opacity:1"
       d="M 68.109375 58.818359 C 68.307018 69.574101 74.031785 80.921086 79.271484 81.416016 C 81.553144 81.766983 84.926402 81.858346 86.822266 80.949219 C 92.290868 78.326794 98.206695 68.941711 98.695312 58.818359 C 97.365527 61.477937 96.035695 64.802192 94.041016 66.796875 C 92.046332 62.807508 91.381109 62.806351 88.056641 61.476562 C 87.378563 61.137501 85.389168 61.992441 83.355469 62 C 81.400852 62.006463 79.399755 61.150767 78.748047 61.476562 C 75.423574 62.806351 74.093461 62.807508 72.763672 66.796875 C 70.768992 64.802192 69.660795 61.477937 68.109375 58.818359 z M 76.753906 66.130859 C 78.083695 66.130859 79.34242 66.796875 80.744141 66.796875 L 86.0625 66.796875 C 87.464221 66.796875 88.722945 66.130859 90.052734 66.130859 C 90.052734 66.130859 91.000382 67.258229 90.716797 68.126953 C 90.17962 69.772484 88.45578 71.529597 86.726562 71.451172 C 86.10034 71.420936 86.025302 70.121094 85.398438 70.121094 L 81.408203 70.121094 C 80.781334 70.121094 80.662954 71.442254 80.019531 71.462891 C 78.302016 71.518072 76.627024 69.772484 76.089844 68.126953 C 75.806266 67.258229 76.753906 66.130859 76.753906 66.130859 z "
       transform="matrix(0.26458333,0,0,0.26458333,-37.854907,291.7305)"
       id="path1379-1" />
    <path
       style="fill:#333333;fill-opacity:1;stroke:none;stroke-width:0.03518397px;stroke-linecap:butt;stroke-linejoin:miter;stroke-opacity:1"
       d="m -19.984841,303.59545 c 0,0 0.977233,-3.54161 2.249261,-4.40767 1.491625,-0.68185 4.294624,-0.65275 5.327857,0.25132 1.058497,0.97845 1.337539,4.86218 1.337539,4.86218 0.117098,0.0659 0.418398,-2.42603 0.3337,-3.21608 -0.09438,-0.88033 -0.375477,-2.5902 -1.331965,-3.46813 -0.454637,-0.4173 -0.670667,-0.57722 -1.202212,-0.80763 -0.800306,-0.3469 -2.483346,-0.56827 -3.899463,0.25474 -0.941934,0.54742 -1.261771,0.9861 -1.960249,1.89742 -0.367134,0.479 -0.615416,1.0587 -0.753943,1.6461 -0.171228,0.72608 -0.100525,2.98775 -0.100525,2.98775 z"
       id="path1387-1"
       inkscape:connector-curvature="0"
       sodipodi:nodetypes="ccccssssssc" />
    <path
       style="fill:#333333;fill-opacity:1;stroke:none;stroke-width:0.03518397px;stroke-linecap:butt;stroke-linejoin:miter;stroke-opacity:1"
       d="m -20.738783,302.97006 c 0.879243,-0.17194 1.677175,-0.15075 2.462877,-0.10053 1.097052,0.12055 1.766902,0.2652 2.496502,0.49361 0.124449,0.039 0.459888,0.0614 0.580759,0.053 0.7767,-0.0541 1.416582,-0.24595 2.062111,-0.24501 0.795788,0.0192 1.646696,0.18164 2.500575,0.35184 l -0.0754,0.55289 c -0.116626,0.0302 -0.185679,0.14577 -0.226182,0.26388 -0.144308,0.42083 -0.194253,0.86793 -0.452364,1.28171 -0.461887,0.74045 -2.288343,0.79592 -3.13559,-0.017 -0.314538,-0.3018 -0.556793,-0.88001 -0.72855,-1.37241 -0.03324,-0.0953 -0.187745,-0.24172 -0.32037,-0.25669 -0.132626,-0.015 -0.289169,0.16068 -0.325435,0.27094 -0.153924,0.46798 -0.366909,0.79162 -0.692257,1.16155 -0.468868,0.53311 -2.581027,1.04201 -3.431068,-0.11081 -0.270303,-0.36658 -0.409927,-1.06853 -0.442848,-1.51968 -0.02351,-0.0503 -0.08232,-0.15384 -0.235068,-0.2041 -0.01257,-0.20106 -0.02513,-0.40211 -0.0377,-0.60316 z"
       id="path1385-3"
       inkscape:connector-curvature="0"
       sodipodi:nodetypes="ccsscccsssssssscccc" />
    <text
       xml:space="preserve"
       style="font-style:normal;font-variant:normal;font-weight:900;font-stretch:normal;font-size:9.15194988px;line-height:1.25;font-family:Montserrat;-inkscape-font-specification:'Montserrat, Heavy';font-variant-ligatures:normal;font-variant-caps:normal;font-variant-numeric:normal;font-feature-settings:normal;text-align:start;letter-spacing:0px;word-spacing:0px;writing-mode:lr-tb;text-anchor:start;fill:#333333;fill-opacity:1;stroke:none;stroke-width:0.1;stroke-miterlimit:4;stroke-dasharray:none;stroke-opacity:1;"
       x="-7.8239264"
       y="310.43509"
       id="text9503-5"><tspan
         sodipodi:role="line"
         id="tspan9501-8"
         x="-7.8239264"
         y="310.43509"
         style="font-style:normal;font-variant:normal;font-weight:900;font-stretch:normal;font-size:9.15194988px;font-family:Montserrat;-inkscape-font-specification:'Montserrat, Heavy';font-variant-ligatures:normal;font-variant-caps:normal;font-variant-numeric:normal;font-feature-settings:normal;text-align:start;writing-mode:lr-tb;text-anchor:start;fill:#333333;fill-opacity:1;stroke:none;stroke-width:0.1;stroke-miterlimit:4;stroke-dasharray:none;stroke-opacity:1;">WHERE'S</tspan><tspan
         sodipodi:role="line"
         x="-7.8239264"
         y="321.87503"
         style="font-style:normal;font-variant:normal;font-weight:900;font-stretch:normal;font-size:9.15194988px;font-family:Montserrat;-inkscape-font-specification:'Montserrat, Heavy';font-variant-ligatures:normal;font-variant-caps:normal;font-variant-numeric:normal;font-feature-settings:normal;text-align:start;writing-mode:lr-tb;text-anchor:start;fill:#333333;fill-opacity:1;stroke:none;stroke-width:0.1;stroke-miterlimit:4;stroke-dasharray:none;stroke-opacity:1;"
         id="tspan9505-6">WILLIAM?</tspan></text>
  </g>
</svg>
